M48
; DRILL file KiCad 10.0.0 date 2026-04-30T13:08:55
; FORMAT={-:-/ absolute / metric / decimal}
; #@! TF.CreationDate,2026-04-30T13:08:55-06:00
; #@! TF.GenerationSoftware,Kicad,Pcbnew,10.0.0
; #@! TF.FileFunction,Plated,1,2,PTH
FMAT,2
METRIC
; #@! TA.AperFunction,Plated,PTH,ViaDrill
T1C0.200
; #@! TA.AperFunction,Plated,PTH,ComponentDrill
T2C0.600
; #@! TA.AperFunction,Plated,PTH,ComponentDrill
T3C0.950
; #@! TA.AperFunction,Plated,PTH,ComponentDrill
T4C1.000
%
G90
G05
T1
X54.5Y-119.25
X56.75Y-99.75
X57.0Y-111.5
X58.75Y-117.0
X59.5Y-116.25
X59.75Y-119.5
X61.802Y-117.75
X62.0Y-119.25
X62.75Y-117.0
X63.725Y-136.975
X64.125Y-122.375
X64.25Y-113.25
X64.375Y-137.0
X65.0Y-126.0
X65.25Y-107.25
X65.25Y-112.75
X65.25Y-116.0
X66.0Y-119.5
X66.265Y-122.765
X66.5Y-130.0
X67.0Y-103.75
X67.625Y-136.875
X68.275Y-136.975
X69.0Y-123.75
X70.25Y-104.0
X70.25Y-107.25
X71.5Y-134.25
X71.75Y-115.75
X72.0Y-97.25
X72.75Y-108.25
X73.0Y-97.25
X73.0Y-99.0
X73.0Y-101.0
X74.5Y-120.0
X74.5Y-122.0
X74.75Y-129.75
X75.25Y-119.5
X75.5Y-129.0
X77.5Y-132.5
X77.75Y-107.75
X78.25Y-131.75
X79.5Y-95.0
X80.0Y-124.0
X81.25Y-96.75
X81.5Y-122.75
X81.75Y-99.0
X81.75Y-101.0
X82.25Y-121.0
X82.25Y-126.25
X83.5Y-124.75
X84.25Y-123.75
X85.5Y-126.75
X85.5Y-130.5
X86.5Y-105.75
X86.5Y-111.75
X87.0Y-126.75
X87.0Y-130.0
X87.75Y-95.0
X88.407Y-108.677
X90.0Y-99.0
X90.0Y-101.0
X90.5Y-97.0
X90.75Y-106.0
X91.0Y-111.25
X92.5Y-101.25
X94.75Y-124.5
X95.0Y-102.5
X97.25Y-124.5
T3
X61.0Y-85.0
X63.5Y-85.0
X66.0Y-85.0
X68.5Y-85.0
X74.5Y-84.975
X77.0Y-84.975
X77.25Y-147.025
X79.5Y-84.975
X79.75Y-147.025
X82.0Y-84.975
X82.25Y-147.025
X84.75Y-147.025
T4
X53.25Y-123.36
X53.25Y-125.9
X53.25Y-128.44
X53.25Y-130.98
X53.25Y-133.52
X53.25Y-136.06
X53.25Y-138.6
X53.25Y-141.14
X53.44Y-92.75
X55.98Y-92.75
X58.52Y-92.75
X60.25Y-147.025
X61.06Y-92.75
X62.75Y-147.025
X68.75Y-147.025
X71.25Y-147.025
X93.98Y-133.94
X93.98Y-136.48
X93.98Y-139.02
X93.98Y-141.56
X95.525Y-117.0
X95.525Y-119.5
X96.52Y-133.94
X96.52Y-136.48
X96.52Y-139.02
X96.52Y-141.56
T2
G00X92.257Y-104.18
M15
G01X93.358Y-104.18
M16
G05
G00X92.257Y-112.82
M15
G01X93.358Y-112.82
M16
G05
G00X96.688Y-104.18
M15
G01X97.287Y-104.18
M16
G05
G00X96.688Y-112.82
M15
G01X97.287Y-112.82
M16
G05
M30
