M48
; DRILL file KiCad 10.0.1 date 2026-05-04T17:36:02
; FORMAT={-:-/ absolute / metric / decimal}
; #@! TF.CreationDate,2026-05-04T17:36:02-06:00
; #@! TF.GenerationSoftware,Kicad,Pcbnew,10.0.1
; #@! TF.FileFunction,Plated,1,2,PTH
FMAT,2
METRIC
; #@! TA.AperFunction,Plated,PTH,ViaDrill
T1C0.200
; #@! TA.AperFunction,Plated,PTH,ViaDrill
T2C0.300
; #@! TA.AperFunction,Plated,PTH,ComponentDrill
T3C0.600
; #@! TA.AperFunction,Plated,PTH,ComponentDrill
T4C0.950
; #@! TA.AperFunction,Plated,PTH,ComponentDrill
T5C1.000
%
G90
G05
T1
X61.5Y-95.5
X66.25Y-98.0
X68.0Y-119.8
X68.25Y-123.75
X68.25Y-128.0
X68.5Y-132.5
X69.5Y-105.25
X71.0Y-103.5
X71.25Y-108.5
X72.0Y-107.0
X72.25Y-105.25
X75.5Y-129.0
X75.75Y-121.25
X77.75Y-128.75
X77.75Y-139.5
X78.0Y-109.75
X80.5Y-118.25
X80.5Y-119.75
X83.25Y-124.25
X84.0Y-123.5
X86.25Y-107.25
X86.25Y-133.0
X86.5Y-105.25
X86.75Y-110.75
X86.75Y-112.75
X86.75Y-114.75
X87.25Y-133.0
X87.5Y-123.0
X89.184Y-117.25
X90.25Y-133.0
X90.75Y-102.0
X90.75Y-124.25
X91.0Y-104.0
X91.25Y-133.0
X92.0Y-102.0
X92.0Y-104.0
X92.25Y-117.25
X92.75Y-106.5
X94.25Y-135.25
X95.25Y-99.25
X95.25Y-135.25
X96.0Y-110.75
X96.25Y-107.0
X96.25Y-135.25
X96.5Y-100.25
X97.0Y-113.75
X97.75Y-117.25
X98.0Y-97.5
X98.0Y-113.5
X98.212Y-111.212
X98.75Y-106.0
X98.75Y-108.25
X99.5Y-118.75
X99.75Y-112.0
X100.25Y-116.5
X102.0Y-113.75
X102.75Y-108.25
X103.25Y-124.75
X103.75Y-106.25
X103.75Y-108.25
X104.25Y-129.25
X104.25Y-132.0
X104.5Y-139.25
X104.75Y-106.0
X105.5Y-104.75
X105.75Y-132.0
X106.25Y-139.25
X106.5Y-115.5
X106.75Y-131.5
X107.25Y-119.0
X107.75Y-116.25
X109.0Y-95.0
X111.0Y-107.0
X111.0Y-109.25
X111.25Y-105.75
X111.5Y-102.75
X112.0Y-115.25
X112.0Y-116.25
X113.0Y-106.5
X113.5Y-101.0
X113.75Y-105.75
X114.75Y-103.25
X115.0Y-108.5
X115.0Y-115.25
X115.0Y-117.0
X115.25Y-98.25
X115.75Y-107.75
X116.75Y-98.25
X117.0Y-103.25
X119.25Y-116.5
T2
X79.25Y-104.75
X79.25Y-106.75
T4
X100.25Y-141.275
X102.75Y-141.275
X105.25Y-141.275
X107.75Y-141.275
X110.25Y-141.275
X124.525Y-116.25
X124.525Y-118.75
X124.525Y-121.25
X124.525Y-123.75
T5
X62.25Y-132.0
X62.25Y-134.5
X79.84Y-92.5
X82.38Y-92.5
X83.25Y-141.275
X84.92Y-92.5
X85.75Y-141.275
X87.46Y-92.5
X90.0Y-92.5
X91.75Y-141.275
X92.54Y-92.5
X94.25Y-141.275
X95.08Y-92.5
X97.62Y-92.5
X115.0Y-134.69
X115.0Y-137.23
X115.0Y-139.77
X115.0Y-142.31
X120.73Y-92.92
X120.73Y-95.46
X120.73Y-98.0
X120.73Y-100.54
X123.27Y-92.92
X123.27Y-95.46
X123.27Y-98.0
X123.27Y-100.54
T3
G00X61.475Y-101.68
M15
G01X60.875Y-101.68
M16
G05
G00X61.475Y-110.32
M15
G01X60.875Y-110.32
M16
G05
G00X65.905Y-101.68
M15
G01X64.805Y-101.68
M16
G05
G00X65.905Y-110.32
M15
G01X64.805Y-110.32
M16
G05
M30
