%TF.GenerationSoftware,KiCad,Pcbnew,10.0.1*%
%TF.CreationDate,2026-05-04T17:36:04-06:00*%
%TF.ProjectId,pcb,7063622e-6b69-4636-9164-5f7063625858,rev?*%
%TF.SameCoordinates,Original*%
%TF.FileFunction,Copper,L2,Bot*%
%TF.FilePolarity,Positive*%
%FSLAX46Y46*%
G04 Gerber Fmt 4.6, Leading zero omitted, Abs format (unit mm)*
G04 Created by KiCad (PCBNEW 10.0.1) date 2026-05-04 17:36:04*
%MOMM*%
%LPD*%
G01*
G04 APERTURE LIST*
G04 Aperture macros list*
%AMRoundRect*
0 Rectangle with rounded corners*
0 $1 Rounding radius*
0 $2 $3 $4 $5 $6 $7 $8 $9 X,Y pos of 4 corners*
0 Add a 4 corners polygon primitive as box body*
4,1,4,$2,$3,$4,$5,$6,$7,$8,$9,$2,$3,0*
0 Add four circle primitives for the rounded corners*
1,1,$1+$1,$2,$3*
1,1,$1+$1,$4,$5*
1,1,$1+$1,$6,$7*
1,1,$1+$1,$8,$9*
0 Add four rect primitives between the rounded corners*
20,1,$1+$1,$2,$3,$4,$5,0*
20,1,$1+$1,$4,$5,$6,$7,0*
20,1,$1+$1,$6,$7,$8,$9,0*
20,1,$1+$1,$8,$9,$2,$3,0*%
G04 Aperture macros list end*
%TA.AperFunction,ComponentPad*%
%ADD10RoundRect,0.250000X-0.725000X0.600000X-0.725000X-0.600000X0.725000X-0.600000X0.725000X0.600000X0*%
%TD*%
%TA.AperFunction,ComponentPad*%
%ADD11O,1.950000X1.700000*%
%TD*%
%TA.AperFunction,ComponentPad*%
%ADD12R,1.700000X1.700000*%
%TD*%
%TA.AperFunction,ComponentPad*%
%ADD13C,1.700000*%
%TD*%
%TA.AperFunction,ComponentPad*%
%ADD14RoundRect,0.250000X0.600000X0.750000X-0.600000X0.750000X-0.600000X-0.750000X0.600000X-0.750000X0*%
%TD*%
%TA.AperFunction,ComponentPad*%
%ADD15O,1.700000X2.000000*%
%TD*%
%TA.AperFunction,ComponentPad*%
%ADD16RoundRect,0.250000X0.750000X-0.600000X0.750000X0.600000X-0.750000X0.600000X-0.750000X-0.600000X0*%
%TD*%
%TA.AperFunction,ComponentPad*%
%ADD17O,2.000000X1.700000*%
%TD*%
%TA.AperFunction,ComponentPad*%
%ADD18O,2.100000X1.000000*%
%TD*%
%TA.AperFunction,ComponentPad*%
%ADD19O,1.600000X1.000000*%
%TD*%
%TA.AperFunction,ComponentPad*%
%ADD20RoundRect,0.250000X0.600000X0.725000X-0.600000X0.725000X-0.600000X-0.725000X0.600000X-0.725000X0*%
%TD*%
%TA.AperFunction,ComponentPad*%
%ADD21O,1.700000X1.950000*%
%TD*%
%TA.AperFunction,ViaPad*%
%ADD22C,0.600000*%
%TD*%
%TA.AperFunction,ViaPad*%
%ADD23C,0.500000*%
%TD*%
%TA.AperFunction,Conductor*%
%ADD24C,0.200000*%
%TD*%
%TA.AperFunction,Conductor*%
%ADD25C,0.508000*%
%TD*%
%TA.AperFunction,Conductor*%
%ADD26C,0.254000*%
%TD*%
G04 APERTURE END LIST*
D10*
%TO.P,J8,1,Pin_1_1*%
%TO.N,+3.3V*%
X124525000Y-116250000D03*
D11*
%TO.P,J8,2,Pin_2_2*%
%TO.N,/ENC_A*%
X124525000Y-118750000D03*
%TO.P,J8,3,Pin_3_3*%
%TO.N,/ENC_B*%
X124525000Y-121250000D03*
%TO.P,J8,4,Pin_4_4*%
%TO.N,GND*%
X124525000Y-123750000D03*
%TD*%
D12*
%TO.P,J2,1,Pin_1_1*%
%TO.N,+3.3V*%
X97620000Y-92500000D03*
D13*
%TO.P,J2,2,Pin_2_2*%
%TO.N,GND*%
X95080000Y-92500000D03*
%TO.P,J2,3,Pin_3_3*%
%TO.N,/IMU_SCL*%
X92540000Y-92500000D03*
%TO.P,J2,4,Pin_4_4*%
%TO.N,/IMU_SDA*%
X90000000Y-92500000D03*
%TO.P,J2,5,Pin_5_5*%
%TO.N,unconnected-(J2-Pin_5-Pad5)*%
X87460000Y-92500000D03*
%TO.P,J2,6,Pin_6_6*%
%TO.N,unconnected-(J2-Pin_6-Pad6)*%
X84920000Y-92500000D03*
%TO.P,J2,7,Pin_7_7*%
%TO.N,unconnected-(J2-Pin_7-Pad7)*%
X82380000Y-92500000D03*
%TO.P,J2,8,Pin_8_8*%
%TO.N,/IMU_INT*%
X79840000Y-92500000D03*
%TD*%
D14*
%TO.P,J6,1,Pin_1_1*%
%TO.N,/MD_AO2*%
X85750000Y-141275000D03*
D15*
%TO.P,J6,2,Pin_2_2*%
%TO.N,/MD_AO1*%
X83250000Y-141275000D03*
%TD*%
D16*
%TO.P,J5,1,Pin_1_1*%
%TO.N,VM*%
X62250000Y-134500000D03*
D17*
%TO.P,J5,2,Pin_2_2*%
%TO.N,GND*%
X62250000Y-132000000D03*
%TD*%
D18*
%TO.P,J3,SH,SHIELD_SH*%
%TO.N,GND*%
X65355000Y-101680000D03*
D19*
X61175000Y-101680000D03*
D18*
X65355000Y-110320000D03*
D19*
X61175000Y-110320000D03*
%TD*%
D14*
%TO.P,J7,1,Pin_1_1*%
%TO.N,/MD_BO1*%
X94250000Y-141275000D03*
D15*
%TO.P,J7,2,Pin_2_2*%
%TO.N,/MD_BO2*%
X91750000Y-141275000D03*
%TD*%
D12*
%TO.P,J1,1,Pin_1_1*%
%TO.N,+3.3V*%
X115000000Y-134690000D03*
D13*
%TO.P,J1,2,Pin_2_2*%
%TO.N,/SWCLK*%
X115000000Y-137230000D03*
%TO.P,J1,3,Pin_3_3*%
%TO.N,GND*%
X115000000Y-139770000D03*
%TO.P,J1,4,Pin_4_4*%
%TO.N,/SWDIO*%
X115000000Y-142310000D03*
%TD*%
D12*
%TO.P,J4,1,Pin_1_1*%
%TO.N,GND*%
X120730000Y-100540000D03*
D13*
%TO.P,J4,2,Pin_2_2*%
%TO.N,/ESP_TX*%
X123270000Y-100540000D03*
%TO.P,J4,3,Pin_3_3*%
%TO.N,unconnected-(J4-Pin_3-Pad3)*%
X120730000Y-98000000D03*
%TO.P,J4,4,Pin_4_4*%
%TO.N,+3.3V*%
X123270000Y-98000000D03*
%TO.P,J4,5,Pin_5_5*%
%TO.N,Net-(J4-Pin_5)*%
X120730000Y-95460000D03*
%TO.P,J4,6,Pin_6_6*%
%TO.N,+3.3V*%
X123270000Y-95460000D03*
%TO.P,J4,7,Pin_7_7*%
%TO.N,/ESP_RX*%
X120730000Y-92920000D03*
%TO.P,J4,8,Pin_8_8*%
%TO.N,+3.3V*%
X123270000Y-92920000D03*
%TD*%
D20*
%TO.P,J9,1,Pin_1_1*%
%TO.N,+3.3V*%
X110250000Y-141275000D03*
D21*
%TO.P,J9,2,Pin_2_2*%
%TO.N,GND*%
X107750000Y-141275000D03*
%TO.P,J9,3,Pin_3_3*%
%TO.N,/MT_PWM*%
X105250000Y-141275000D03*
%TO.P,J9,4,Pin_4_4*%
%TO.N,/MT_SCL*%
X102750000Y-141275000D03*
%TO.P,J9,5,Pin_5_5*%
%TO.N,/MT_SDA*%
X100250000Y-141275000D03*
%TD*%
D22*
%TO.N,Vusb*%
X79250000Y-104750000D03*
X79250000Y-106750000D03*
D23*
%TO.N,GND*%
X75750000Y-121250000D03*
X68000000Y-119800000D03*
X86750000Y-110750000D03*
X86250000Y-107250000D03*
X94250000Y-135250000D03*
X95250000Y-135250000D03*
X71000000Y-103500000D03*
X90250000Y-133000000D03*
X86500000Y-105250000D03*
X97000000Y-113750000D03*
X106750000Y-131500000D03*
X103250000Y-124750000D03*
X91250000Y-133000000D03*
X61500000Y-95500000D03*
X86750000Y-114750000D03*
X71250000Y-108500000D03*
X68500000Y-132500000D03*
X96000000Y-110750000D03*
X66250000Y-98000000D03*
X104250000Y-129250000D03*
X90750000Y-124250000D03*
X109000000Y-95000000D03*
X111250000Y-105750000D03*
X104750000Y-106000000D03*
X83250000Y-124250000D03*
X87250000Y-133000000D03*
X96250000Y-135250000D03*
X102000000Y-113750000D03*
X86250000Y-133000000D03*
X68250000Y-128000000D03*
X96500000Y-100250000D03*
X78000000Y-109750000D03*
X75500000Y-129000000D03*
X86750000Y-112750000D03*
X107250000Y-119000000D03*
X69500000Y-105250000D03*
X68250000Y-123750000D03*
%TO.N,+3.3V*%
X116750000Y-98250000D03*
X113500000Y-101000000D03*
X80500000Y-118250000D03*
X98000000Y-97500000D03*
X111500000Y-102750000D03*
X84000000Y-123500000D03*
X98750000Y-106000000D03*
X95250000Y-99250000D03*
X115000000Y-115250000D03*
X115250000Y-98250000D03*
X80500000Y-119750000D03*
X102750000Y-108250000D03*
X119250000Y-116500000D03*
X98750000Y-108250000D03*
X105500000Y-104750000D03*
X98211500Y-111211500D03*
X87500000Y-123000000D03*
X98000000Y-113500000D03*
X112000000Y-115250000D03*
X106500000Y-115500000D03*
X115000000Y-117000000D03*
%TO.N,/IMU_INT*%
X92000000Y-102000000D03*
X92000000Y-104000000D03*
%TO.N,/RESET*%
X91000000Y-104000000D03*
X92750000Y-106500000D03*
X90750000Y-102000000D03*
X96250000Y-107000000D03*
%TO.N,/WS_DIN*%
X100250000Y-116500000D03*
X99750000Y-112000000D03*
%TO.N,/MD_PWMB*%
X99500000Y-118750000D03*
X97750000Y-117250000D03*
%TO.N,/USER_LED*%
X89183998Y-117250000D03*
X92250000Y-117250000D03*
%TO.N,/MT_SDA*%
X104250000Y-132000000D03*
X105750000Y-132000000D03*
%TO.N,/MT_SCL*%
X104500000Y-139250000D03*
X106250000Y-139250000D03*
%TO.N,/ESP_TX*%
X117000000Y-103250000D03*
X114750000Y-103250000D03*
%TO.N,/SWDIO*%
X111000000Y-107000000D03*
X111000000Y-109250000D03*
%TO.N,/SWCLK*%
X103750000Y-108250000D03*
X103750000Y-106250000D03*
X107750000Y-116250000D03*
X112000000Y-116250000D03*
%TO.N,/ENC_B*%
X113000000Y-106500000D03*
X115000000Y-108500000D03*
%TO.N,/ENC_A*%
X113750000Y-105750000D03*
X115750000Y-107750000D03*
%TO.N,+5V*%
X77750000Y-139500000D03*
X77750000Y-128750000D03*
%TO.N,/CONN_D+*%
X72250000Y-105250000D03*
X72000000Y-107000000D03*
%TD*%
%TO.N,Vusb*%
D24*
X79250000Y-104750000D02*
X79250000Y-106750000D01*
%TO.N,+3.3V*%
D25*
X119250000Y-116500000D02*
X119500000Y-116250000D01*
X84000000Y-123500000D02*
X87000000Y-123500000D01*
X97000000Y-97500000D02*
X95250000Y-99250000D01*
X115250000Y-98250000D02*
X116750000Y-98250000D01*
D26*
X98000000Y-113500000D02*
X98000000Y-111423000D01*
D25*
X102750000Y-108250000D02*
X102750000Y-105750000D01*
X102750000Y-105750000D02*
X103750000Y-104750000D01*
X98750000Y-108250000D02*
X98750000Y-106000000D01*
X80500000Y-118250000D02*
X80500000Y-119750000D01*
X115000000Y-117000000D02*
X115000000Y-115250000D01*
X119500000Y-116250000D02*
X124525000Y-116250000D01*
X87000000Y-123500000D02*
X87500000Y-123000000D01*
D26*
X98000000Y-111423000D02*
X98211500Y-111211500D01*
D25*
X111750000Y-102750000D02*
X113500000Y-101000000D01*
X98000000Y-97500000D02*
X97000000Y-97500000D01*
X103750000Y-104750000D02*
X105500000Y-104750000D01*
X111500000Y-102750000D02*
X111750000Y-102750000D01*
X106500000Y-115500000D02*
X106750000Y-115250000D01*
X106750000Y-115250000D02*
X112000000Y-115250000D01*
%TO.N,/IMU_INT*%
D26*
X92000000Y-104000000D02*
X92000000Y-102000000D01*
%TO.N,/RESET*%
X91000000Y-104000000D02*
X91000000Y-102250000D01*
X91000000Y-102250000D02*
X90750000Y-102000000D01*
X96250000Y-107000000D02*
X93250000Y-107000000D01*
X93250000Y-107000000D02*
X92750000Y-106500000D01*
%TO.N,/WS_DIN*%
X99750000Y-112000000D02*
X100250000Y-112500000D01*
X100250000Y-112500000D02*
X100250000Y-116500000D01*
%TO.N,/MD_PWMB*%
X99500000Y-118750000D02*
X99250000Y-118750000D01*
X99250000Y-118750000D02*
X97750000Y-117250000D01*
%TO.N,/USER_LED*%
X89183998Y-117250000D02*
X92250000Y-117250000D01*
%TO.N,/MT_SDA*%
X105750000Y-132000000D02*
X104250000Y-132000000D01*
%TO.N,/MT_SCL*%
X104500000Y-139250000D02*
X106250000Y-139250000D01*
%TO.N,/ESP_TX*%
X114750000Y-103250000D02*
X117000000Y-103250000D01*
%TO.N,/SWDIO*%
X111000000Y-107000000D02*
X111000000Y-109250000D01*
%TO.N,/SWCLK*%
X103750000Y-106250000D02*
X103750000Y-108250000D01*
X107750000Y-116250000D02*
X112000000Y-116250000D01*
%TO.N,/ENC_B*%
X113000000Y-106500000D02*
X115000000Y-108500000D01*
%TO.N,/ENC_A*%
X113750000Y-105750000D02*
X115750000Y-107750000D01*
%TO.N,+5V*%
D25*
X77750000Y-128750000D02*
X77750000Y-139500000D01*
%TO.N,/CONN_D+*%
D26*
X72000000Y-105500000D02*
X72250000Y-105250000D01*
X72000000Y-107000000D02*
X72000000Y-105500000D01*
%TD*%
%TA.AperFunction,Conductor*%
%TO.N,GND*%
G36*
X79121544Y-91520185D02*
G01*
X79167299Y-91572989D01*
X79177243Y-91642147D01*
X79148218Y-91705703D01*
X79142186Y-91712181D01*
X79024025Y-91830341D01*
X79024024Y-91830342D01*
X78909058Y-92002403D01*
X78829870Y-92193579D01*
X78829868Y-92193587D01*
X78789500Y-92396530D01*
X78789500Y-92603469D01*
X78829868Y-92806412D01*
X78829870Y-92806420D01*
X78895939Y-92965925D01*
X78909059Y-92997598D01*
X78954796Y-93066048D01*
X79024024Y-93169657D01*
X79170342Y-93315975D01*
X79170345Y-93315977D01*
X79342402Y-93430941D01*
X79533580Y-93510130D01*
X79736530Y-93550499D01*
X79736534Y-93550500D01*
X79736535Y-93550500D01*
X79943466Y-93550500D01*
X79943467Y-93550499D01*
X80146420Y-93510130D01*
X80337598Y-93430941D01*
X80509655Y-93315977D01*
X80655977Y-93169655D01*
X80770941Y-92997598D01*
X80850130Y-92806420D01*
X80890500Y-92603465D01*
X80890500Y-92396535D01*
X80850130Y-92193580D01*
X80770941Y-92002402D01*
X80655977Y-91830345D01*
X80655975Y-91830342D01*
X80537814Y-91712181D01*
X80504329Y-91650858D01*
X80509313Y-91581166D01*
X80551185Y-91525233D01*
X80616649Y-91500816D01*
X80625495Y-91500500D01*
X81594505Y-91500500D01*
X81661544Y-91520185D01*
X81707299Y-91572989D01*
X81717243Y-91642147D01*
X81688218Y-91705703D01*
X81682186Y-91712181D01*
X81564025Y-91830341D01*
X81564024Y-91830342D01*
X81449058Y-92002403D01*
X81369870Y-92193579D01*
X81369868Y-92193587D01*
X81329500Y-92396530D01*
X81329500Y-92603469D01*
X81369868Y-92806412D01*
X81369870Y-92806420D01*
X81435939Y-92965925D01*
X81449059Y-92997598D01*
X81494796Y-93066048D01*
X81564024Y-93169657D01*
X81710342Y-93315975D01*
X81710345Y-93315977D01*
X81882402Y-93430941D01*
X82073580Y-93510130D01*
X82276530Y-93550499D01*
X82276534Y-93550500D01*
X82276535Y-93550500D01*
X82483466Y-93550500D01*
X82483467Y-93550499D01*
X82686420Y-93510130D01*
X82877598Y-93430941D01*
X83049655Y-93315977D01*
X83195977Y-93169655D01*
X83310941Y-92997598D01*
X83390130Y-92806420D01*
X83430500Y-92603465D01*
X83430500Y-92396535D01*
X83390130Y-92193580D01*
X83310941Y-92002402D01*
X83195977Y-91830345D01*
X83195975Y-91830342D01*
X83077814Y-91712181D01*
X83044329Y-91650858D01*
X83049313Y-91581166D01*
X83091185Y-91525233D01*
X83156649Y-91500816D01*
X83165495Y-91500500D01*
X84134505Y-91500500D01*
X84201544Y-91520185D01*
X84247299Y-91572989D01*
X84257243Y-91642147D01*
X84228218Y-91705703D01*
X84222186Y-91712181D01*
X84104025Y-91830341D01*
X84104024Y-91830342D01*
X83989058Y-92002403D01*
X83909870Y-92193579D01*
X83909868Y-92193587D01*
X83869500Y-92396530D01*
X83869500Y-92603469D01*
X83909868Y-92806412D01*
X83909870Y-92806420D01*
X83975939Y-92965925D01*
X83989059Y-92997598D01*
X84034796Y-93066048D01*
X84104024Y-93169657D01*
X84250342Y-93315975D01*
X84250345Y-93315977D01*
X84422402Y-93430941D01*
X84613580Y-93510130D01*
X84816530Y-93550499D01*
X84816534Y-93550500D01*
X84816535Y-93550500D01*
X85023466Y-93550500D01*
X85023467Y-93550499D01*
X85226420Y-93510130D01*
X85417598Y-93430941D01*
X85589655Y-93315977D01*
X85735977Y-93169655D01*
X85850941Y-92997598D01*
X85930130Y-92806420D01*
X85970500Y-92603465D01*
X85970500Y-92396535D01*
X85930130Y-92193580D01*
X85850941Y-92002402D01*
X85735977Y-91830345D01*
X85735975Y-91830342D01*
X85617814Y-91712181D01*
X85584329Y-91650858D01*
X85589313Y-91581166D01*
X85631185Y-91525233D01*
X85696649Y-91500816D01*
X85705495Y-91500500D01*
X86674505Y-91500500D01*
X86741544Y-91520185D01*
X86787299Y-91572989D01*
X86797243Y-91642147D01*
X86768218Y-91705703D01*
X86762186Y-91712181D01*
X86644025Y-91830341D01*
X86644024Y-91830342D01*
X86529058Y-92002403D01*
X86449870Y-92193579D01*
X86449868Y-92193587D01*
X86409500Y-92396530D01*
X86409500Y-92603469D01*
X86449868Y-92806412D01*
X86449870Y-92806420D01*
X86515939Y-92965925D01*
X86529059Y-92997598D01*
X86574796Y-93066048D01*
X86644024Y-93169657D01*
X86790342Y-93315975D01*
X86790345Y-93315977D01*
X86962402Y-93430941D01*
X87153580Y-93510130D01*
X87356530Y-93550499D01*
X87356534Y-93550500D01*
X87356535Y-93550500D01*
X87563466Y-93550500D01*
X87563467Y-93550499D01*
X87766420Y-93510130D01*
X87957598Y-93430941D01*
X88129655Y-93315977D01*
X88275977Y-93169655D01*
X88390941Y-92997598D01*
X88470130Y-92806420D01*
X88510500Y-92603465D01*
X88510500Y-92396535D01*
X88470130Y-92193580D01*
X88390941Y-92002402D01*
X88275977Y-91830345D01*
X88275975Y-91830342D01*
X88157814Y-91712181D01*
X88124329Y-91650858D01*
X88129313Y-91581166D01*
X88171185Y-91525233D01*
X88236649Y-91500816D01*
X88245495Y-91500500D01*
X89214505Y-91500500D01*
X89281544Y-91520185D01*
X89327299Y-91572989D01*
X89337243Y-91642147D01*
X89308218Y-91705703D01*
X89302186Y-91712181D01*
X89184025Y-91830341D01*
X89184024Y-91830342D01*
X89069058Y-92002403D01*
X88989870Y-92193579D01*
X88989868Y-92193587D01*
X88949500Y-92396530D01*
X88949500Y-92603469D01*
X88989868Y-92806412D01*
X88989870Y-92806420D01*
X89055939Y-92965925D01*
X89069059Y-92997598D01*
X89114796Y-93066048D01*
X89184024Y-93169657D01*
X89330342Y-93315975D01*
X89330345Y-93315977D01*
X89502402Y-93430941D01*
X89693580Y-93510130D01*
X89896530Y-93550499D01*
X89896534Y-93550500D01*
X89896535Y-93550500D01*
X90103466Y-93550500D01*
X90103467Y-93550499D01*
X90306420Y-93510130D01*
X90497598Y-93430941D01*
X90669655Y-93315977D01*
X90815977Y-93169655D01*
X90930941Y-92997598D01*
X91010130Y-92806420D01*
X91050500Y-92603465D01*
X91050500Y-92396535D01*
X91010130Y-92193580D01*
X90930941Y-92002402D01*
X90815977Y-91830345D01*
X90815975Y-91830342D01*
X90697814Y-91712181D01*
X90664329Y-91650858D01*
X90669313Y-91581166D01*
X90711185Y-91525233D01*
X90776649Y-91500816D01*
X90785495Y-91500500D01*
X91754505Y-91500500D01*
X91821544Y-91520185D01*
X91867299Y-91572989D01*
X91877243Y-91642147D01*
X91848218Y-91705703D01*
X91842186Y-91712181D01*
X91724025Y-91830341D01*
X91724024Y-91830342D01*
X91609058Y-92002403D01*
X91529870Y-92193579D01*
X91529868Y-92193587D01*
X91489500Y-92396530D01*
X91489500Y-92603469D01*
X91529868Y-92806412D01*
X91529870Y-92806420D01*
X91595939Y-92965925D01*
X91609059Y-92997598D01*
X91654796Y-93066048D01*
X91724024Y-93169657D01*
X91870342Y-93315975D01*
X91870345Y-93315977D01*
X92042402Y-93430941D01*
X92233580Y-93510130D01*
X92436530Y-93550499D01*
X92436534Y-93550500D01*
X92436535Y-93550500D01*
X92643466Y-93550500D01*
X92643467Y-93550499D01*
X92846420Y-93510130D01*
X93037598Y-93430941D01*
X93209655Y-93315977D01*
X93355977Y-93169655D01*
X93470941Y-92997598D01*
X93539165Y-92832889D01*
X93583004Y-92778488D01*
X93649298Y-92756423D01*
X93716998Y-92773702D01*
X93764609Y-92824839D01*
X93771656Y-92842026D01*
X93828904Y-93018216D01*
X93925375Y-93207550D01*
X93964728Y-93261716D01*
X94597036Y-92629407D01*
X94614075Y-92692993D01*
X94679901Y-92807007D01*
X94772993Y-92900099D01*
X94887007Y-92965925D01*
X94950590Y-92982962D01*
X94318282Y-93615269D01*
X94318282Y-93615270D01*
X94372449Y-93654624D01*
X94561782Y-93751095D01*
X94763870Y-93816757D01*
X94973754Y-93850000D01*
X95186246Y-93850000D01*
X95396127Y-93816757D01*
X95396130Y-93816757D01*
X95598217Y-93751095D01*
X95787554Y-93654622D01*
X95841716Y-93615270D01*
X95841717Y-93615270D01*
X95209408Y-92982962D01*
X95272993Y-92965925D01*
X95387007Y-92900099D01*
X95480099Y-92807007D01*
X95545925Y-92692993D01*
X95562962Y-92629409D01*
X96195270Y-93261717D01*
X96195270Y-93261716D01*
X96234622Y-93207554D01*
X96333306Y-93013879D01*
X96334321Y-93014396D01*
X96374779Y-92964192D01*
X96441073Y-92942127D01*
X96508772Y-92959406D01*
X96556383Y-93010542D01*
X96569500Y-93066048D01*
X96569500Y-93369752D01*
X96581131Y-93428229D01*
X96581132Y-93428230D01*
X96625447Y-93494552D01*
X96691769Y-93538867D01*
X96691770Y-93538868D01*
X96750247Y-93550499D01*
X96750250Y-93550500D01*
X96750252Y-93550500D01*
X98489750Y-93550500D01*
X98489751Y-93550499D01*
X98504568Y-93547552D01*
X98548229Y-93538868D01*
X98548229Y-93538867D01*
X98548231Y-93538867D01*
X98614552Y-93494552D01*
X98658867Y-93428231D01*
X98658867Y-93428229D01*
X98658868Y-93428229D01*
X98670499Y-93369752D01*
X98670500Y-93369750D01*
X98670500Y-93068995D01*
X105799499Y-93068995D01*
X105826418Y-93204322D01*
X105826421Y-93204332D01*
X105879221Y-93331804D01*
X105879228Y-93331817D01*
X105955885Y-93446541D01*
X105955888Y-93446545D01*
X106053454Y-93544111D01*
X106053458Y-93544114D01*
X106168182Y-93620771D01*
X106168195Y-93620778D01*
X106295667Y-93673578D01*
X106295672Y-93673580D01*
X106295676Y-93673580D01*
X106295677Y-93673581D01*
X106431004Y-93700500D01*
X106431007Y-93700500D01*
X106568995Y-93700500D01*
X106673088Y-93679794D01*
X106704328Y-93673580D01*
X106831811Y-93620775D01*
X106946542Y-93544114D01*
X107044114Y-93446542D01*
X107120775Y-93331811D01*
X107127335Y-93315975D01*
X107164429Y-93226420D01*
X107173580Y-93204328D01*
X107200500Y-93068995D01*
X108799499Y-93068995D01*
X108826418Y-93204322D01*
X108826421Y-93204332D01*
X108879221Y-93331804D01*
X108879228Y-93331817D01*
X108955885Y-93446541D01*
X108955888Y-93446545D01*
X109053454Y-93544111D01*
X109053458Y-93544114D01*
X109168182Y-93620771D01*
X109168195Y-93620778D01*
X109295667Y-93673578D01*
X109295672Y-93673580D01*
X109295676Y-93673580D01*
X109295677Y-93673581D01*
X109431004Y-93700500D01*
X109431007Y-93700500D01*
X109568995Y-93700500D01*
X109673088Y-93679794D01*
X109704328Y-93673580D01*
X109831811Y-93620775D01*
X109946542Y-93544114D01*
X110044114Y-93446542D01*
X110120775Y-93331811D01*
X110127335Y-93315975D01*
X110164429Y-93226420D01*
X110173580Y-93204328D01*
X110200500Y-93068993D01*
X110200500Y-92931007D01*
X110200500Y-92931004D01*
X110200499Y-92931002D01*
X110181331Y-92834634D01*
X110177729Y-92816530D01*
X119679500Y-92816530D01*
X119679500Y-93023469D01*
X119719868Y-93226412D01*
X119719870Y-93226420D01*
X119779239Y-93369750D01*
X119799059Y-93417598D01*
X119833876Y-93469706D01*
X119914024Y-93589657D01*
X120060342Y-93735975D01*
X120060345Y-93735977D01*
X120232402Y-93850941D01*
X120423580Y-93930130D01*
X120626530Y-93970499D01*
X120626534Y-93970500D01*
X120626535Y-93970500D01*
X120833466Y-93970500D01*
X120833467Y-93970499D01*
X121036420Y-93930130D01*
X121227598Y-93850941D01*
X121399655Y-93735977D01*
X121545977Y-93589655D01*
X121660941Y-93417598D01*
X121740130Y-93226420D01*
X121780500Y-93023465D01*
X121780500Y-92816535D01*
X121740130Y-92613580D01*
X121660941Y-92422402D01*
X121545977Y-92250345D01*
X121545975Y-92250342D01*
X121399657Y-92104024D01*
X121285375Y-92027664D01*
X121227598Y-91989059D01*
X121210027Y-91981781D01*
X121036420Y-91909870D01*
X121036412Y-91909868D01*
X120833469Y-91869500D01*
X120833465Y-91869500D01*
X120626535Y-91869500D01*
X120626530Y-91869500D01*
X120423587Y-91909868D01*
X120423579Y-91909870D01*
X120232403Y-91989058D01*
X120060342Y-92104024D01*
X119914024Y-92250342D01*
X119799058Y-92422403D01*
X119719870Y-92613579D01*
X119719868Y-92613587D01*
X119679500Y-92816530D01*
X110177729Y-92816530D01*
X110173581Y-92795677D01*
X110173580Y-92795676D01*
X110173580Y-92795672D01*
X110152155Y-92743947D01*
X110120778Y-92668195D01*
X110120771Y-92668182D01*
X110044114Y-92553458D01*
X110044111Y-92553454D01*
X109946545Y-92455888D01*
X109946541Y-92455885D01*
X109831817Y-92379228D01*
X109831804Y-92379221D01*
X109704332Y-92326421D01*
X109704322Y-92326418D01*
X109568995Y-92299500D01*
X109568993Y-92299500D01*
X109431007Y-92299500D01*
X109431005Y-92299500D01*
X109295677Y-92326418D01*
X109295667Y-92326421D01*
X109168195Y-92379221D01*
X109168182Y-92379228D01*
X109053458Y-92455885D01*
X109053454Y-92455888D01*
X108955888Y-92553454D01*
X108955885Y-92553458D01*
X108879228Y-92668182D01*
X108879221Y-92668195D01*
X108826421Y-92795667D01*
X108826418Y-92795677D01*
X108799500Y-92931004D01*
X108799500Y-92931007D01*
X108799500Y-93068993D01*
X108799500Y-93068995D01*
X108799499Y-93068995D01*
X107200500Y-93068995D01*
X107200500Y-93068993D01*
X107200500Y-92931007D01*
X107200500Y-92931004D01*
X107173581Y-92795677D01*
X107173580Y-92795676D01*
X107173580Y-92795672D01*
X107152155Y-92743947D01*
X107120778Y-92668195D01*
X107120771Y-92668182D01*
X107044114Y-92553458D01*
X107044111Y-92553454D01*
X106946545Y-92455888D01*
X106946541Y-92455885D01*
X106831817Y-92379228D01*
X106831804Y-92379221D01*
X106704332Y-92326421D01*
X106704322Y-92326418D01*
X106568995Y-92299500D01*
X106568993Y-92299500D01*
X106431007Y-92299500D01*
X106431005Y-92299500D01*
X106295677Y-92326418D01*
X106295667Y-92326421D01*
X106168195Y-92379221D01*
X106168182Y-92379228D01*
X106053458Y-92455885D01*
X106053454Y-92455888D01*
X105955888Y-92553454D01*
X105955885Y-92553458D01*
X105879228Y-92668182D01*
X105879221Y-92668195D01*
X105826421Y-92795667D01*
X105826418Y-92795677D01*
X105799500Y-92931004D01*
X105799500Y-92931007D01*
X105799500Y-93068993D01*
X105799500Y-93068995D01*
X105799499Y-93068995D01*
X98670500Y-93068995D01*
X98670500Y-91624500D01*
X98690185Y-91557461D01*
X98742989Y-91511706D01*
X98794500Y-91500500D01*
X124375500Y-91500500D01*
X124442539Y-91520185D01*
X124488294Y-91572989D01*
X124499500Y-91624500D01*
X124499500Y-92519796D01*
X124479815Y-92586835D01*
X124427011Y-92632590D01*
X124357853Y-92642534D01*
X124294297Y-92613509D01*
X124260939Y-92567249D01*
X124200942Y-92422403D01*
X124085975Y-92250342D01*
X123939657Y-92104024D01*
X123825375Y-92027664D01*
X123767598Y-91989059D01*
X123750027Y-91981781D01*
X123576420Y-91909870D01*
X123576412Y-91909868D01*
X123373469Y-91869500D01*
X123373465Y-91869500D01*
X123166535Y-91869500D01*
X123166530Y-91869500D01*
X122963587Y-91909868D01*
X122963579Y-91909870D01*
X122772403Y-91989058D01*
X122600342Y-92104024D01*
X122454024Y-92250342D01*
X122339058Y-92422403D01*
X122259870Y-92613579D01*
X122259868Y-92613587D01*
X122219500Y-92816530D01*
X122219500Y-93023469D01*
X122259868Y-93226412D01*
X122259870Y-93226420D01*
X122319239Y-93369750D01*
X122339059Y-93417598D01*
X122373876Y-93469706D01*
X122454024Y-93589657D01*
X122600342Y-93735975D01*
X122600345Y-93735977D01*
X122772402Y-93850941D01*
X122963580Y-93930130D01*
X123166530Y-93970499D01*
X123166534Y-93970500D01*
X123166535Y-93970500D01*
X123373466Y-93970500D01*
X123373467Y-93970499D01*
X123576420Y-93930130D01*
X123767598Y-93850941D01*
X123939655Y-93735977D01*
X124085977Y-93589655D01*
X124200941Y-93417598D01*
X124260939Y-93272749D01*
X124304780Y-93218347D01*
X124371074Y-93196282D01*
X124438773Y-93213561D01*
X124486384Y-93264698D01*
X124499500Y-93320203D01*
X124499500Y-95059796D01*
X124479815Y-95126835D01*
X124427011Y-95172590D01*
X124357853Y-95182534D01*
X124294297Y-95153509D01*
X124260939Y-95107249D01*
X124200942Y-94962403D01*
X124085975Y-94790342D01*
X123939657Y-94644024D01*
X123853626Y-94586541D01*
X123767598Y-94529059D01*
X123576420Y-94449870D01*
X123576412Y-94449868D01*
X123373469Y-94409500D01*
X123373465Y-94409500D01*
X123166535Y-94409500D01*
X123166530Y-94409500D01*
X122963587Y-94449868D01*
X122963579Y-94449870D01*
X122772403Y-94529058D01*
X122600342Y-94644024D01*
X122454024Y-94790342D01*
X122339058Y-94962403D01*
X122259870Y-95153579D01*
X122259868Y-95153587D01*
X122219500Y-95356530D01*
X122219500Y-95563469D01*
X122259868Y-95766412D01*
X122259870Y-95766420D01*
X122339058Y-95957596D01*
X122454024Y-96129657D01*
X122600342Y-96275975D01*
X122600345Y-96275977D01*
X122772402Y-96390941D01*
X122963580Y-96470130D01*
X123166530Y-96510499D01*
X123166534Y-96510500D01*
X123166535Y-96510500D01*
X123373466Y-96510500D01*
X123373467Y-96510499D01*
X123576420Y-96470130D01*
X123767598Y-96390941D01*
X123939655Y-96275977D01*
X124085977Y-96129655D01*
X124200941Y-95957598D01*
X124260939Y-95812749D01*
X124304780Y-95758347D01*
X124371074Y-95736282D01*
X124438773Y-95753561D01*
X124486384Y-95804698D01*
X124499500Y-95860203D01*
X124499500Y-97599796D01*
X124479815Y-97666835D01*
X124427011Y-97712590D01*
X124357853Y-97722534D01*
X124294297Y-97693509D01*
X124260939Y-97647249D01*
X124200942Y-97502403D01*
X124085975Y-97330342D01*
X123939657Y-97184024D01*
X123778695Y-97076474D01*
X123767598Y-97069059D01*
X123710719Y-97045499D01*
X123576420Y-96989870D01*
X123576412Y-96989868D01*
X123373469Y-96949500D01*
X123373465Y-96949500D01*
X123166535Y-96949500D01*
X123166530Y-96949500D01*
X122963587Y-96989868D01*
X122963579Y-96989870D01*
X122772403Y-97069058D01*
X122600342Y-97184024D01*
X122454024Y-97330342D01*
X122339058Y-97502403D01*
X122259870Y-97693579D01*
X122259868Y-97693587D01*
X122219500Y-97896530D01*
X122219500Y-98103469D01*
X122259868Y-98306412D01*
X122259870Y-98306420D01*
X122339058Y-98497596D01*
X122454024Y-98669657D01*
X122600342Y-98815975D01*
X122600345Y-98815977D01*
X122772402Y-98930941D01*
X122963580Y-99010130D01*
X123155741Y-99048353D01*
X123166530Y-99050499D01*
X123166534Y-99050500D01*
X123166535Y-99050500D01*
X123373466Y-99050500D01*
X123373467Y-99050499D01*
X123576420Y-99010130D01*
X123767598Y-98930941D01*
X123939655Y-98815977D01*
X124085977Y-98669655D01*
X124200941Y-98497598D01*
X124260939Y-98352749D01*
X124304780Y-98298347D01*
X124371074Y-98276282D01*
X124438773Y-98293561D01*
X124486384Y-98344698D01*
X124499500Y-98400203D01*
X124499500Y-100139796D01*
X124479815Y-100206835D01*
X124427011Y-100252590D01*
X124357853Y-100262534D01*
X124294297Y-100233509D01*
X124260939Y-100187249D01*
X124200942Y-100042403D01*
X124085975Y-99870342D01*
X123939657Y-99724024D01*
X123817130Y-99642155D01*
X123767598Y-99609059D01*
X123576420Y-99529870D01*
X123576412Y-99529868D01*
X123373469Y-99489500D01*
X123373465Y-99489500D01*
X123166535Y-99489500D01*
X123166530Y-99489500D01*
X122963587Y-99529868D01*
X122963579Y-99529870D01*
X122772403Y-99609058D01*
X122600342Y-99724024D01*
X122454024Y-99870342D01*
X122339058Y-100042403D01*
X122318561Y-100091888D01*
X122274720Y-100146291D01*
X122208426Y-100168356D01*
X122140726Y-100151077D01*
X122093116Y-100099939D01*
X122080000Y-100044435D01*
X122080000Y-99642172D01*
X122079999Y-99642155D01*
X122073598Y-99582627D01*
X122073596Y-99582620D01*
X122023354Y-99447913D01*
X122023350Y-99447906D01*
X121937190Y-99332812D01*
X121937187Y-99332809D01*
X121822093Y-99246649D01*
X121822086Y-99246645D01*
X121687379Y-99196403D01*
X121687372Y-99196401D01*
X121627844Y-99190000D01*
X121225565Y-99190000D01*
X121158526Y-99170315D01*
X121112771Y-99117511D01*
X121102827Y-99048353D01*
X121131852Y-98984797D01*
X121178112Y-98951439D01*
X121183608Y-98949162D01*
X121227598Y-98930941D01*
X121399655Y-98815977D01*
X121545977Y-98669655D01*
X121660941Y-98497598D01*
X121740130Y-98306420D01*
X121780500Y-98103465D01*
X121780500Y-97896535D01*
X121740130Y-97693580D01*
X121660941Y-97502402D01*
X121545977Y-97330345D01*
X121545975Y-97330342D01*
X121399657Y-97184024D01*
X121238695Y-97076474D01*
X121227598Y-97069059D01*
X121170719Y-97045499D01*
X121036420Y-96989870D01*
X121036412Y-96989868D01*
X120833469Y-96949500D01*
X120833465Y-96949500D01*
X120626535Y-96949500D01*
X120626530Y-96949500D01*
X120423587Y-96989868D01*
X120423579Y-96989870D01*
X120232403Y-97069058D01*
X120060342Y-97184024D01*
X119914024Y-97330342D01*
X119799058Y-97502403D01*
X119719870Y-97693579D01*
X119719868Y-97693587D01*
X119679500Y-97896530D01*
X119679500Y-98103469D01*
X119719868Y-98306412D01*
X119719870Y-98306420D01*
X119799058Y-98497596D01*
X119914024Y-98669657D01*
X120060342Y-98815975D01*
X120060345Y-98815977D01*
X120232402Y-98930941D01*
X120271993Y-98947340D01*
X120281888Y-98951439D01*
X120336291Y-98995280D01*
X120358356Y-99061574D01*
X120341077Y-99129274D01*
X120289939Y-99176884D01*
X120234435Y-99190000D01*
X119832155Y-99190000D01*
X119772627Y-99196401D01*
X119772620Y-99196403D01*
X119637913Y-99246645D01*
X119637906Y-99246649D01*
X119522812Y-99332809D01*
X119522809Y-99332812D01*
X119436649Y-99447906D01*
X119436645Y-99447913D01*
X119386403Y-99582620D01*
X119386401Y-99582627D01*
X119380000Y-99642155D01*
X119380000Y-100290000D01*
X120296988Y-100290000D01*
X120264075Y-100347007D01*
X120230000Y-100474174D01*
X120230000Y-100605826D01*
X120264075Y-100732993D01*
X120296988Y-100790000D01*
X119380000Y-100790000D01*
X119380000Y-101437844D01*
X119386401Y-101497372D01*
X119386403Y-101497379D01*
X119436645Y-101632086D01*
X119436649Y-101632093D01*
X119522809Y-101747187D01*
X119522812Y-101747190D01*
X119637906Y-101833350D01*
X119637913Y-101833354D01*
X119772620Y-101883596D01*
X119772627Y-101883598D01*
X119832155Y-101889999D01*
X119832172Y-101890000D01*
X120480000Y-101890000D01*
X120480000Y-100973012D01*
X120537007Y-101005925D01*
X120664174Y-101040000D01*
X120795826Y-101040000D01*
X120922993Y-101005925D01*
X120980000Y-100973012D01*
X120980000Y-101890000D01*
X121627828Y-101890000D01*
X121627844Y-101889999D01*
X121687372Y-101883598D01*
X121687379Y-101883596D01*
X121822086Y-101833354D01*
X121822093Y-101833350D01*
X121937187Y-101747190D01*
X121937190Y-101747187D01*
X122023350Y-101632093D01*
X122023354Y-101632086D01*
X122073596Y-101497379D01*
X122073598Y-101497372D01*
X122079999Y-101437844D01*
X122080000Y-101437827D01*
X122080000Y-101035564D01*
X122099685Y-100968525D01*
X122152489Y-100922770D01*
X122221647Y-100912826D01*
X122285203Y-100941851D01*
X122318561Y-100988112D01*
X122325939Y-101005925D01*
X122339059Y-101037598D01*
X122353917Y-101059834D01*
X122454024Y-101209657D01*
X122600342Y-101355975D01*
X122600345Y-101355977D01*
X122772402Y-101470941D01*
X122963580Y-101550130D01*
X123166530Y-101590499D01*
X123166534Y-101590500D01*
X123166535Y-101590500D01*
X123373466Y-101590500D01*
X123373467Y-101590499D01*
X123576420Y-101550130D01*
X123767598Y-101470941D01*
X123939655Y-101355977D01*
X124085977Y-101209655D01*
X124200941Y-101037598D01*
X124260939Y-100892749D01*
X124304780Y-100838347D01*
X124371074Y-100816282D01*
X124438773Y-100833561D01*
X124486384Y-100884698D01*
X124499500Y-100940203D01*
X124499500Y-103977298D01*
X124495590Y-104020309D01*
X124499500Y-104042932D01*
X124499500Y-104065892D01*
X124510677Y-104107607D01*
X124518033Y-104150167D01*
X124527662Y-104171002D01*
X124530414Y-104181272D01*
X124530416Y-104181276D01*
X124533606Y-104193183D01*
X124533607Y-104193185D01*
X124533608Y-104193186D01*
X124555202Y-104230588D01*
X124573322Y-104269793D01*
X124588020Y-104287431D01*
X124599500Y-104307314D01*
X124626068Y-104333882D01*
X124633637Y-104342171D01*
X126970759Y-107146717D01*
X126998555Y-107210819D01*
X126999500Y-107226099D01*
X126999500Y-138773899D01*
X126979815Y-138840938D01*
X126970759Y-138853282D01*
X124633640Y-141657823D01*
X124630029Y-141662155D01*
X124599500Y-141692686D01*
X124588024Y-141712559D01*
X124581216Y-141720730D01*
X124581216Y-141720732D01*
X124573323Y-141730204D01*
X124573320Y-141730208D01*
X124557560Y-141764307D01*
X124552391Y-141774277D01*
X124533609Y-141806809D01*
X124533607Y-141806815D01*
X124530417Y-141818715D01*
X124530418Y-141818716D01*
X124527665Y-141828991D01*
X124518033Y-141849833D01*
X124510677Y-141892392D01*
X124509222Y-141897823D01*
X124499500Y-141934105D01*
X124499500Y-141946428D01*
X124497689Y-141967545D01*
X124495590Y-141979690D01*
X124495589Y-141979692D01*
X124498991Y-142017101D01*
X124499500Y-142028328D01*
X124499500Y-143375500D01*
X124479815Y-143442539D01*
X124427011Y-143488294D01*
X124375500Y-143499500D01*
X115496772Y-143499500D01*
X115429733Y-143479815D01*
X115383978Y-143427011D01*
X115374034Y-143357853D01*
X115403059Y-143294297D01*
X115449319Y-143260939D01*
X115452696Y-143259540D01*
X115497598Y-143240941D01*
X115669655Y-143125977D01*
X115815977Y-142979655D01*
X115930941Y-142807598D01*
X116010130Y-142616420D01*
X116050500Y-142413465D01*
X116050500Y-142206535D01*
X116010130Y-142003580D01*
X115930941Y-141812402D01*
X115815977Y-141640345D01*
X115815975Y-141640342D01*
X115669657Y-141494024D01*
X115583626Y-141436541D01*
X115497598Y-141379059D01*
X115497593Y-141379057D01*
X115355534Y-141320214D01*
X115332890Y-141310834D01*
X115278488Y-141266994D01*
X115256423Y-141200700D01*
X115273702Y-141133001D01*
X115324839Y-141085390D01*
X115342026Y-141078343D01*
X115518217Y-141021095D01*
X115707554Y-140924622D01*
X115761716Y-140885270D01*
X115761717Y-140885270D01*
X115129408Y-140252962D01*
X115192993Y-140235925D01*
X115307007Y-140170099D01*
X115400099Y-140077007D01*
X115465925Y-139962993D01*
X115482962Y-139899409D01*
X116115270Y-140531717D01*
X116115270Y-140531716D01*
X116154622Y-140477554D01*
X116251095Y-140288217D01*
X116316757Y-140086130D01*
X116316757Y-140086127D01*
X116350000Y-139876246D01*
X116350000Y-139663753D01*
X116316757Y-139453872D01*
X116316757Y-139453869D01*
X116251095Y-139251782D01*
X116154624Y-139062449D01*
X116115270Y-139008282D01*
X116115269Y-139008282D01*
X115482962Y-139640590D01*
X115465925Y-139577007D01*
X115400099Y-139462993D01*
X115307007Y-139369901D01*
X115192993Y-139304075D01*
X115129409Y-139287037D01*
X115761716Y-138654728D01*
X115707550Y-138615375D01*
X115518216Y-138518904D01*
X115342026Y-138461656D01*
X115284350Y-138422218D01*
X115257152Y-138357860D01*
X115269067Y-138289013D01*
X115316311Y-138237538D01*
X115332882Y-138229168D01*
X115497598Y-138160941D01*
X115669655Y-138045977D01*
X115815977Y-137899655D01*
X115930941Y-137727598D01*
X116010130Y-137536420D01*
X116050500Y-137333465D01*
X116050500Y-137126535D01*
X116010130Y-136923580D01*
X115991545Y-136878711D01*
X122149500Y-136878711D01*
X122149500Y-137121288D01*
X122181161Y-137361785D01*
X122243947Y-137596104D01*
X122298413Y-137727596D01*
X122336776Y-137820212D01*
X122458064Y-138030289D01*
X122458066Y-138030292D01*
X122458067Y-138030293D01*
X122605733Y-138222736D01*
X122605739Y-138222743D01*
X122777256Y-138394260D01*
X122777262Y-138394265D01*
X122969711Y-138541936D01*
X123179788Y-138663224D01*
X123403900Y-138756054D01*
X123638211Y-138818838D01*
X123774474Y-138836777D01*
X123878711Y-138850500D01*
X123878712Y-138850500D01*
X124121289Y-138850500D01*
X124169388Y-138844167D01*
X124361789Y-138818838D01*
X124596100Y-138756054D01*
X124820212Y-138663224D01*
X125030289Y-138541936D01*
X125222738Y-138394265D01*
X125394265Y-138222738D01*
X125541936Y-138030289D01*
X125663224Y-137820212D01*
X125756054Y-137596100D01*
X125818838Y-137361789D01*
X125850500Y-137121288D01*
X125850500Y-136878712D01*
X125818838Y-136638211D01*
X125756054Y-136403900D01*
X125663224Y-136179788D01*
X125541936Y-135969711D01*
X125394265Y-135777262D01*
X125394260Y-135777256D01*
X125222743Y-135605739D01*
X125222736Y-135605733D01*
X125030293Y-135458067D01*
X125030292Y-135458066D01*
X125030289Y-135458064D01*
X124820212Y-135336776D01*
X124762522Y-135312880D01*
X124596104Y-135243947D01*
X124478944Y-135212554D01*
X124361789Y-135181162D01*
X124361788Y-135181161D01*
X124361785Y-135181161D01*
X124121289Y-135149500D01*
X124121288Y-135149500D01*
X123878712Y-135149500D01*
X123878711Y-135149500D01*
X123638214Y-135181161D01*
X123403895Y-135243947D01*
X123179794Y-135336773D01*
X123179785Y-135336777D01*
X122969706Y-135458067D01*
X122777263Y-135605733D01*
X122777256Y-135605739D01*
X122605739Y-135777256D01*
X122605733Y-135777263D01*
X122458067Y-135969706D01*
X122336777Y-136179785D01*
X122336773Y-136179794D01*
X122243947Y-136403895D01*
X122181161Y-136638214D01*
X122149500Y-136878711D01*
X115991545Y-136878711D01*
X115930941Y-136732402D01*
X115815977Y-136560345D01*
X115815975Y-136560342D01*
X115669657Y-136414024D01*
X115583626Y-136356541D01*
X115497598Y-136299059D01*
X115306420Y-136219870D01*
X115306412Y-136219868D01*
X115103469Y-136179500D01*
X115103465Y-136179500D01*
X114896535Y-136179500D01*
X114896530Y-136179500D01*
X114693587Y-136219868D01*
X114693579Y-136219870D01*
X114502403Y-136299058D01*
X114330342Y-136414024D01*
X114184024Y-136560342D01*
X114069058Y-136732403D01*
X113989870Y-136923579D01*
X113989868Y-136923587D01*
X113949500Y-137126530D01*
X113949500Y-137333469D01*
X113989868Y-137536412D01*
X113989870Y-137536420D01*
X114069058Y-137727596D01*
X114184024Y-137899657D01*
X114330342Y-138045975D01*
X114502405Y-138160943D01*
X114605043Y-138203456D01*
X114667108Y-138229164D01*
X114721511Y-138273005D01*
X114743576Y-138339299D01*
X114726297Y-138406998D01*
X114675160Y-138454609D01*
X114657974Y-138461656D01*
X114481781Y-138518905D01*
X114292439Y-138615380D01*
X114238282Y-138654727D01*
X114238282Y-138654728D01*
X114870591Y-139287037D01*
X114807007Y-139304075D01*
X114692993Y-139369901D01*
X114599901Y-139462993D01*
X114534075Y-139577007D01*
X114517037Y-139640591D01*
X113884728Y-139008282D01*
X113884727Y-139008282D01*
X113845380Y-139062439D01*
X113748904Y-139251782D01*
X113683242Y-139453869D01*
X113683242Y-139453872D01*
X113650000Y-139663753D01*
X113650000Y-139876246D01*
X113683242Y-140086127D01*
X113683242Y-140086130D01*
X113748904Y-140288217D01*
X113845375Y-140477550D01*
X113884728Y-140531716D01*
X114517037Y-139899408D01*
X114534075Y-139962993D01*
X114599901Y-140077007D01*
X114692993Y-140170099D01*
X114807007Y-140235925D01*
X114870590Y-140252962D01*
X114238282Y-140885269D01*
X114238282Y-140885270D01*
X114292449Y-140924624D01*
X114481782Y-141021095D01*
X114657973Y-141078343D01*
X114715648Y-141117780D01*
X114742847Y-141182139D01*
X114730932Y-141250985D01*
X114683688Y-141302461D01*
X114667108Y-141310835D01*
X114502403Y-141379057D01*
X114330342Y-141494024D01*
X114184024Y-141640342D01*
X114069058Y-141812403D01*
X113989870Y-142003579D01*
X113989868Y-142003587D01*
X113949500Y-142206530D01*
X113949500Y-142413469D01*
X113989868Y-142616412D01*
X113989870Y-142616420D01*
X114069058Y-142807596D01*
X114184024Y-142979657D01*
X114330342Y-143125975D01*
X114330345Y-143125977D01*
X114502402Y-143240941D01*
X114544367Y-143258323D01*
X114550681Y-143260939D01*
X114605084Y-143304780D01*
X114627149Y-143371074D01*
X114609870Y-143438773D01*
X114558733Y-143486384D01*
X114503228Y-143499500D01*
X60124500Y-143499500D01*
X60057461Y-143479815D01*
X60011706Y-143427011D01*
X60000500Y-143375500D01*
X60000500Y-140378711D01*
X72649500Y-140378711D01*
X72649500Y-140621288D01*
X72678765Y-140843587D01*
X72681162Y-140861789D01*
X72697998Y-140924622D01*
X72743947Y-141096104D01*
X72808101Y-141250985D01*
X72836776Y-141320212D01*
X72958064Y-141530289D01*
X72958066Y-141530292D01*
X72958067Y-141530293D01*
X73105733Y-141722736D01*
X73105739Y-141722743D01*
X73277256Y-141894260D01*
X73277263Y-141894266D01*
X73334561Y-141938232D01*
X73469711Y-142041936D01*
X73679788Y-142163224D01*
X73903900Y-142256054D01*
X74138211Y-142318838D01*
X74318586Y-142342584D01*
X74378711Y-142350500D01*
X74378712Y-142350500D01*
X74621289Y-142350500D01*
X74669388Y-142344167D01*
X74861789Y-142318838D01*
X75096100Y-142256054D01*
X75320212Y-142163224D01*
X75530289Y-142041936D01*
X75722738Y-141894265D01*
X75894265Y-141722738D01*
X76041936Y-141530289D01*
X76163224Y-141320212D01*
X76256054Y-141096100D01*
X76276035Y-141021530D01*
X82199500Y-141021530D01*
X82199500Y-141528469D01*
X82239868Y-141731412D01*
X82239870Y-141731420D01*
X82308703Y-141897598D01*
X82319059Y-141922598D01*
X82357206Y-141979690D01*
X82434024Y-142094657D01*
X82580342Y-142240975D01*
X82580345Y-142240977D01*
X82752402Y-142355941D01*
X82943580Y-142435130D01*
X83132187Y-142472646D01*
X83146530Y-142475499D01*
X83146534Y-142475500D01*
X83146535Y-142475500D01*
X83353466Y-142475500D01*
X83353467Y-142475499D01*
X83556420Y-142435130D01*
X83747598Y-142355941D01*
X83919655Y-142240977D01*
X84065977Y-142094655D01*
X84180941Y-141922598D01*
X84260130Y-141731420D01*
X84300500Y-141528465D01*
X84300500Y-141021535D01*
X84260130Y-140818580D01*
X84180941Y-140627402D01*
X84120353Y-140536725D01*
X84120352Y-140536722D01*
X84076257Y-140470730D01*
X84699500Y-140470730D01*
X84699500Y-142079269D01*
X84702353Y-142109699D01*
X84702353Y-142109701D01*
X84736238Y-142206535D01*
X84747207Y-142237882D01*
X84827850Y-142347150D01*
X84937118Y-142427793D01*
X84958089Y-142435131D01*
X85065299Y-142472646D01*
X85095730Y-142475500D01*
X85095734Y-142475500D01*
X86404270Y-142475500D01*
X86434699Y-142472646D01*
X86434701Y-142472646D01*
X86506145Y-142447646D01*
X86562882Y-142427793D01*
X86672150Y-142347150D01*
X86752793Y-142237882D01*
X86778918Y-142163222D01*
X86797646Y-142109701D01*
X86797646Y-142109699D01*
X86800500Y-142079269D01*
X86800500Y-141021530D01*
X90699500Y-141021530D01*
X90699500Y-141528469D01*
X90739868Y-141731412D01*
X90739870Y-141731420D01*
X90808703Y-141897598D01*
X90819059Y-141922598D01*
X90857206Y-141979690D01*
X90934024Y-142094657D01*
X91080342Y-142240975D01*
X91080345Y-142240977D01*
X91252402Y-142355941D01*
X91443580Y-142435130D01*
X91632187Y-142472646D01*
X91646530Y-142475499D01*
X91646534Y-142475500D01*
X91646535Y-142475500D01*
X91853466Y-142475500D01*
X91853467Y-142475499D01*
X92056420Y-142435130D01*
X92247598Y-142355941D01*
X92419655Y-142240977D01*
X92565977Y-142094655D01*
X92680941Y-141922598D01*
X92760130Y-141731420D01*
X92800500Y-141528465D01*
X92800500Y-141021535D01*
X92760130Y-140818580D01*
X92680941Y-140627402D01*
X92620353Y-140536725D01*
X92620352Y-140536722D01*
X92576257Y-140470730D01*
X93199500Y-140470730D01*
X93199500Y-142079269D01*
X93202353Y-142109699D01*
X93202353Y-142109701D01*
X93236238Y-142206535D01*
X93247207Y-142237882D01*
X93327850Y-142347150D01*
X93437118Y-142427793D01*
X93458089Y-142435131D01*
X93565299Y-142472646D01*
X93595730Y-142475500D01*
X93595734Y-142475500D01*
X94904270Y-142475500D01*
X94934699Y-142472646D01*
X94934701Y-142472646D01*
X95006145Y-142447646D01*
X95062882Y-142427793D01*
X95172150Y-142347150D01*
X95252793Y-142237882D01*
X95278918Y-142163222D01*
X95297646Y-142109701D01*
X95297646Y-142109699D01*
X95300500Y-142079269D01*
X95300500Y-141046530D01*
X99199500Y-141046530D01*
X99199500Y-141503469D01*
X99239868Y-141706412D01*
X99239870Y-141706420D01*
X99316902Y-141892392D01*
X99319059Y-141897598D01*
X99343452Y-141934105D01*
X99434024Y-142069657D01*
X99580342Y-142215975D01*
X99580345Y-142215977D01*
X99752402Y-142330941D01*
X99943580Y-142410130D01*
X100132187Y-142447646D01*
X100146530Y-142450499D01*
X100146534Y-142450500D01*
X100146535Y-142450500D01*
X100353466Y-142450500D01*
X100353467Y-142450499D01*
X100556420Y-142410130D01*
X100747598Y-142330941D01*
X100919655Y-142215977D01*
X101065977Y-142069655D01*
X101180941Y-141897598D01*
X101260130Y-141706420D01*
X101300500Y-141503465D01*
X101300500Y-141046535D01*
X101300499Y-141046530D01*
X101699500Y-141046530D01*
X101699500Y-141503469D01*
X101739868Y-141706412D01*
X101739870Y-141706420D01*
X101816902Y-141892392D01*
X101819059Y-141897598D01*
X101843452Y-141934105D01*
X101934024Y-142069657D01*
X102080342Y-142215975D01*
X102080345Y-142215977D01*
X102252402Y-142330941D01*
X102443580Y-142410130D01*
X102632187Y-142447646D01*
X102646530Y-142450499D01*
X102646534Y-142450500D01*
X102646535Y-142450500D01*
X102853466Y-142450500D01*
X102853467Y-142450499D01*
X103056420Y-142410130D01*
X103247598Y-142330941D01*
X103419655Y-142215977D01*
X103565977Y-142069655D01*
X103680941Y-141897598D01*
X103760130Y-141706420D01*
X103800500Y-141503465D01*
X103800500Y-141046535D01*
X103800499Y-141046530D01*
X104199500Y-141046530D01*
X104199500Y-141503469D01*
X104239868Y-141706412D01*
X104239870Y-141706420D01*
X104316902Y-141892392D01*
X104319059Y-141897598D01*
X104343452Y-141934105D01*
X104434024Y-142069657D01*
X104580342Y-142215975D01*
X104580345Y-142215977D01*
X104752402Y-142330941D01*
X104943580Y-142410130D01*
X105132187Y-142447646D01*
X105146530Y-142450499D01*
X105146534Y-142450500D01*
X105146535Y-142450500D01*
X105353466Y-142450500D01*
X105353467Y-142450499D01*
X105556420Y-142410130D01*
X105747598Y-142330941D01*
X105919655Y-142215977D01*
X106065977Y-142069655D01*
X106180941Y-141897598D01*
X106226748Y-141787009D01*
X106270589Y-141732606D01*
X106336883Y-141710541D01*
X106404582Y-141727820D01*
X106452193Y-141778957D01*
X106459240Y-141796144D01*
X106498904Y-141918216D01*
X106595379Y-142107557D01*
X106720272Y-142279459D01*
X106720276Y-142279464D01*
X106870535Y-142429723D01*
X106870540Y-142429727D01*
X107042442Y-142554620D01*
X107231782Y-142651095D01*
X107433871Y-142716757D01*
X107500000Y-142727231D01*
X107500000Y-141679145D01*
X107566657Y-141717630D01*
X107687465Y-141750000D01*
X107812535Y-141750000D01*
X107933343Y-141717630D01*
X108000000Y-141679145D01*
X108000000Y-142727230D01*
X108066126Y-142716757D01*
X108066129Y-142716757D01*
X108268217Y-142651095D01*
X108457557Y-142554620D01*
X108629459Y-142429727D01*
X108629464Y-142429723D01*
X108779723Y-142279464D01*
X108779727Y-142279459D01*
X108904620Y-142107557D01*
X108965015Y-141989028D01*
X109012990Y-141938232D01*
X109080811Y-141921437D01*
X109146946Y-141943974D01*
X109190397Y-141998690D01*
X109199500Y-142045323D01*
X109199500Y-142054269D01*
X109202353Y-142084699D01*
X109202353Y-142084701D01*
X109244986Y-142206535D01*
X109247207Y-142212882D01*
X109327850Y-142322150D01*
X109437118Y-142402793D01*
X109479845Y-142417744D01*
X109565299Y-142447646D01*
X109595730Y-142450500D01*
X109595734Y-142450500D01*
X110904270Y-142450500D01*
X110934699Y-142447646D01*
X110934701Y-142447646D01*
X110998790Y-142425219D01*
X111062882Y-142402793D01*
X111172150Y-142322150D01*
X111252793Y-142212882D01*
X111275219Y-142148790D01*
X111297646Y-142084701D01*
X111297646Y-142084699D01*
X111300500Y-142054269D01*
X111300500Y-140495730D01*
X111297646Y-140465300D01*
X111297646Y-140465298D01*
X111252793Y-140337119D01*
X111252792Y-140337117D01*
X111172150Y-140227850D01*
X111062882Y-140147207D01*
X111062880Y-140147206D01*
X110934700Y-140102353D01*
X110904270Y-140099500D01*
X110904266Y-140099500D01*
X109595734Y-140099500D01*
X109595730Y-140099500D01*
X109565300Y-140102353D01*
X109565298Y-140102353D01*
X109437119Y-140147206D01*
X109437117Y-140147207D01*
X109327850Y-140227850D01*
X109247207Y-140337117D01*
X109247206Y-140337119D01*
X109202353Y-140465298D01*
X109202353Y-140465300D01*
X109199500Y-140495730D01*
X109199500Y-140504676D01*
X109179815Y-140571715D01*
X109127011Y-140617470D01*
X109057853Y-140627414D01*
X108994297Y-140598389D01*
X108965015Y-140560971D01*
X108904620Y-140442442D01*
X108779727Y-140270540D01*
X108779723Y-140270535D01*
X108629464Y-140120276D01*
X108629459Y-140120272D01*
X108457557Y-139995379D01*
X108268215Y-139898903D01*
X108066124Y-139833241D01*
X108000000Y-139822768D01*
X108000000Y-140870854D01*
X107933343Y-140832370D01*
X107812535Y-140800000D01*
X107687465Y-140800000D01*
X107566657Y-140832370D01*
X107500000Y-140870854D01*
X107500000Y-139822768D01*
X107499999Y-139822768D01*
X107433875Y-139833241D01*
X107231784Y-139898903D01*
X107042442Y-139995379D01*
X106870540Y-140120272D01*
X106870535Y-140120276D01*
X106720276Y-140270535D01*
X106720272Y-140270540D01*
X106595379Y-140442442D01*
X106498905Y-140631781D01*
X106459240Y-140753856D01*
X106419802Y-140811531D01*
X106355443Y-140838729D01*
X106286597Y-140826814D01*
X106235121Y-140779570D01*
X106226748Y-140762990D01*
X106180941Y-140652403D01*
X106180941Y-140652402D01*
X106065977Y-140480345D01*
X106065975Y-140480342D01*
X105919657Y-140334024D01*
X105772840Y-140235925D01*
X105747598Y-140219059D01*
X105708466Y-140202850D01*
X105556420Y-140139870D01*
X105556412Y-140139868D01*
X105353469Y-140099500D01*
X105353465Y-140099500D01*
X105146535Y-140099500D01*
X105146530Y-140099500D01*
X104943587Y-140139868D01*
X104943579Y-140139870D01*
X104752403Y-140219058D01*
X104580342Y-140334024D01*
X104434024Y-140480342D01*
X104319058Y-140652403D01*
X104239870Y-140843579D01*
X104239868Y-140843587D01*
X104199500Y-141046530D01*
X103800499Y-141046530D01*
X103760130Y-140843580D01*
X103680941Y-140652402D01*
X103565977Y-140480345D01*
X103565975Y-140480342D01*
X103419657Y-140334024D01*
X103272840Y-140235925D01*
X103247598Y-140219059D01*
X103208466Y-140202850D01*
X103056420Y-140139870D01*
X103056412Y-140139868D01*
X102853469Y-140099500D01*
X102853465Y-140099500D01*
X102646535Y-140099500D01*
X102646530Y-140099500D01*
X102443587Y-140139868D01*
X102443579Y-140139870D01*
X102252403Y-140219058D01*
X102080342Y-140334024D01*
X101934024Y-140480342D01*
X101819058Y-140652403D01*
X101739870Y-140843579D01*
X101739868Y-140843587D01*
X101699500Y-141046530D01*
X101300499Y-141046530D01*
X101260130Y-140843580D01*
X101180941Y-140652402D01*
X101065977Y-140480345D01*
X101065975Y-140480342D01*
X100919657Y-140334024D01*
X100772840Y-140235925D01*
X100747598Y-140219059D01*
X100708466Y-140202850D01*
X100556420Y-140139870D01*
X100556412Y-140139868D01*
X100353469Y-140099500D01*
X100353465Y-140099500D01*
X100146535Y-140099500D01*
X100146530Y-140099500D01*
X99943587Y-140139868D01*
X99943579Y-140139870D01*
X99752403Y-140219058D01*
X99580342Y-140334024D01*
X99434024Y-140480342D01*
X99319058Y-140652403D01*
X99239870Y-140843579D01*
X99239868Y-140843587D01*
X99199500Y-141046530D01*
X95300500Y-141046530D01*
X95300500Y-140470730D01*
X95297646Y-140440300D01*
X95297646Y-140440298D01*
X95252793Y-140312119D01*
X95252792Y-140312117D01*
X95172150Y-140202850D01*
X95062882Y-140122207D01*
X95062880Y-140122206D01*
X94934700Y-140077353D01*
X94904270Y-140074500D01*
X94904266Y-140074500D01*
X93595734Y-140074500D01*
X93595730Y-140074500D01*
X93565300Y-140077353D01*
X93565298Y-140077353D01*
X93437119Y-140122206D01*
X93437117Y-140122207D01*
X93327850Y-140202850D01*
X93247207Y-140312117D01*
X93247206Y-140312119D01*
X93202353Y-140440298D01*
X93202353Y-140440300D01*
X93199500Y-140470730D01*
X92576257Y-140470730D01*
X92565980Y-140455349D01*
X92565974Y-140455341D01*
X92419657Y-140309024D01*
X92285012Y-140219058D01*
X92247598Y-140194059D01*
X92056420Y-140114870D01*
X92056412Y-140114868D01*
X91853469Y-140074500D01*
X91853465Y-140074500D01*
X91646535Y-140074500D01*
X91646530Y-140074500D01*
X91443587Y-140114868D01*
X91443579Y-140114870D01*
X91252403Y-140194058D01*
X91080342Y-140309024D01*
X90934024Y-140455342D01*
X90819058Y-140627403D01*
X90739870Y-140818579D01*
X90739868Y-140818587D01*
X90699500Y-141021530D01*
X86800500Y-141021530D01*
X86800500Y-140470730D01*
X86797646Y-140440300D01*
X86797646Y-140440298D01*
X86752793Y-140312119D01*
X86752792Y-140312117D01*
X86672150Y-140202850D01*
X86562882Y-140122207D01*
X86562880Y-140122206D01*
X86434700Y-140077353D01*
X86404270Y-140074500D01*
X86404266Y-140074500D01*
X85095734Y-140074500D01*
X85095730Y-140074500D01*
X85065300Y-140077353D01*
X85065298Y-140077353D01*
X84937119Y-140122206D01*
X84937117Y-140122207D01*
X84827850Y-140202850D01*
X84747207Y-140312117D01*
X84747206Y-140312119D01*
X84702353Y-140440298D01*
X84702353Y-140440300D01*
X84699500Y-140470730D01*
X84076257Y-140470730D01*
X84065980Y-140455349D01*
X84065974Y-140455341D01*
X83919657Y-140309024D01*
X83785012Y-140219058D01*
X83747598Y-140194059D01*
X83556420Y-140114870D01*
X83556412Y-140114868D01*
X83353469Y-140074500D01*
X83353465Y-140074500D01*
X83146535Y-140074500D01*
X83146530Y-140074500D01*
X82943587Y-140114868D01*
X82943579Y-140114870D01*
X82752403Y-140194058D01*
X82580342Y-140309024D01*
X82434024Y-140455342D01*
X82319058Y-140627403D01*
X82239870Y-140818579D01*
X82239868Y-140818587D01*
X82199500Y-141021530D01*
X76276035Y-141021530D01*
X76318838Y-140861789D01*
X76350500Y-140621288D01*
X76350500Y-140378712D01*
X76318838Y-140138211D01*
X76256054Y-139903900D01*
X76163224Y-139679788D01*
X76041936Y-139469711D01*
X75965349Y-139369901D01*
X75894266Y-139277263D01*
X75894260Y-139277256D01*
X75722743Y-139105739D01*
X75722736Y-139105733D01*
X75530293Y-138958067D01*
X75530292Y-138958066D01*
X75530289Y-138958064D01*
X75320212Y-138836776D01*
X75276906Y-138818838D01*
X75096104Y-138743947D01*
X74861785Y-138681161D01*
X74621289Y-138649500D01*
X74621288Y-138649500D01*
X74378712Y-138649500D01*
X74378711Y-138649500D01*
X74138214Y-138681161D01*
X73903895Y-138743947D01*
X73679794Y-138836773D01*
X73679785Y-138836777D01*
X73469706Y-138958067D01*
X73277263Y-139105733D01*
X73277256Y-139105739D01*
X73105739Y-139277256D01*
X73105733Y-139277263D01*
X72958067Y-139469706D01*
X72836777Y-139679785D01*
X72836773Y-139679794D01*
X72743947Y-139903895D01*
X72681161Y-140138214D01*
X72649500Y-140378711D01*
X60000500Y-140378711D01*
X60000500Y-131750000D01*
X60772769Y-131750000D01*
X61816988Y-131750000D01*
X61784075Y-131807007D01*
X61750000Y-131934174D01*
X61750000Y-132065826D01*
X61784075Y-132192993D01*
X61816988Y-132250000D01*
X60772769Y-132250000D01*
X60783242Y-132316126D01*
X60783242Y-132316129D01*
X60848904Y-132518217D01*
X60945379Y-132707557D01*
X61070272Y-132879459D01*
X61070276Y-132879464D01*
X61220535Y-133029723D01*
X61220540Y-133029727D01*
X61392442Y-133154620D01*
X61510971Y-133215015D01*
X61561767Y-133262990D01*
X61578562Y-133330811D01*
X61556024Y-133396946D01*
X61501309Y-133440397D01*
X61454676Y-133449500D01*
X61445730Y-133449500D01*
X61415300Y-133452353D01*
X61415298Y-133452353D01*
X61287119Y-133497206D01*
X61287117Y-133497207D01*
X61177850Y-133577850D01*
X61097207Y-133687117D01*
X61097206Y-133687119D01*
X61052353Y-133815298D01*
X61052353Y-133815300D01*
X61049500Y-133845730D01*
X61049500Y-135154269D01*
X61052353Y-135184699D01*
X61052353Y-135184701D01*
X61097206Y-135312880D01*
X61097207Y-135312882D01*
X61177850Y-135422150D01*
X61287118Y-135502793D01*
X61329845Y-135517744D01*
X61415299Y-135547646D01*
X61445730Y-135550500D01*
X61445734Y-135550500D01*
X63054270Y-135550500D01*
X63084699Y-135547646D01*
X63084701Y-135547646D01*
X63148790Y-135525219D01*
X63212882Y-135502793D01*
X63322150Y-135422150D01*
X63402793Y-135312882D01*
X63426915Y-135243946D01*
X63447646Y-135184701D01*
X63447646Y-135184699D01*
X63450500Y-135154269D01*
X63450500Y-133845730D01*
X63447646Y-133815300D01*
X63447646Y-133815298D01*
X63402793Y-133687119D01*
X63402792Y-133687117D01*
X63376234Y-133651132D01*
X63322150Y-133577850D01*
X63212882Y-133497207D01*
X63212880Y-133497206D01*
X63084700Y-133452353D01*
X63054270Y-133449500D01*
X63054266Y-133449500D01*
X63045324Y-133449500D01*
X62978285Y-133429815D01*
X62932530Y-133377011D01*
X62922586Y-133307853D01*
X62951611Y-133244297D01*
X62989029Y-133215015D01*
X63107557Y-133154620D01*
X63279459Y-133029727D01*
X63279464Y-133029723D01*
X63429723Y-132879464D01*
X63429727Y-132879459D01*
X63554620Y-132707557D01*
X63651095Y-132518217D01*
X63716757Y-132316129D01*
X63716757Y-132316126D01*
X63727231Y-132250000D01*
X62683012Y-132250000D01*
X62715925Y-132192993D01*
X62750000Y-132065826D01*
X62750000Y-131934174D01*
X62715925Y-131807007D01*
X62683012Y-131750000D01*
X63727231Y-131750000D01*
X63716757Y-131683873D01*
X63716757Y-131683870D01*
X63651095Y-131481782D01*
X63554620Y-131292442D01*
X63429727Y-131120540D01*
X63429723Y-131120535D01*
X63279464Y-130970276D01*
X63279459Y-130970272D01*
X63107557Y-130845379D01*
X62918217Y-130748904D01*
X62716129Y-130683242D01*
X62506246Y-130650000D01*
X62500000Y-130650000D01*
X62500000Y-131566988D01*
X62442993Y-131534075D01*
X62315826Y-131500000D01*
X62184174Y-131500000D01*
X62057007Y-131534075D01*
X62000000Y-131566988D01*
X62000000Y-130650000D01*
X61993754Y-130650000D01*
X61783872Y-130683242D01*
X61783869Y-130683242D01*
X61581782Y-130748904D01*
X61392442Y-130845379D01*
X61220540Y-130970272D01*
X61220535Y-130970276D01*
X61070276Y-131120535D01*
X61070272Y-131120540D01*
X60945379Y-131292442D01*
X60848904Y-131481782D01*
X60783242Y-131683870D01*
X60783242Y-131683873D01*
X60772769Y-131750000D01*
X60000500Y-131750000D01*
X60000500Y-128690164D01*
X77295500Y-128690164D01*
X77295500Y-139559836D01*
X77324964Y-139669797D01*
X77326473Y-139675430D01*
X77326474Y-139675433D01*
X77328992Y-139679794D01*
X77386309Y-139779070D01*
X77470930Y-139863691D01*
X77574569Y-139923527D01*
X77690164Y-139954500D01*
X77690166Y-139954500D01*
X77809834Y-139954500D01*
X77809836Y-139954500D01*
X77925431Y-139923527D01*
X78029070Y-139863691D01*
X78113691Y-139779070D01*
X78173527Y-139675431D01*
X78204500Y-139559836D01*
X78204500Y-139190691D01*
X104049500Y-139190691D01*
X104049500Y-139309309D01*
X104080201Y-139423886D01*
X104139511Y-139526613D01*
X104223387Y-139610489D01*
X104326114Y-139669799D01*
X104440691Y-139700500D01*
X104440694Y-139700500D01*
X104559306Y-139700500D01*
X104559309Y-139700500D01*
X104673886Y-139669799D01*
X104776613Y-139610489D01*
X104776620Y-139610481D01*
X104783059Y-139605542D01*
X104784648Y-139607613D01*
X104834606Y-139580334D01*
X104860964Y-139577500D01*
X105889036Y-139577500D01*
X105956075Y-139597185D01*
X105966751Y-139605788D01*
X105966941Y-139605542D01*
X105973382Y-139610484D01*
X105973387Y-139610489D01*
X106076114Y-139669799D01*
X106190691Y-139700500D01*
X106190694Y-139700500D01*
X106309306Y-139700500D01*
X106309309Y-139700500D01*
X106423886Y-139669799D01*
X106526613Y-139610489D01*
X106610489Y-139526613D01*
X106669799Y-139423886D01*
X106700500Y-139309309D01*
X106700500Y-139190691D01*
X106669799Y-139076114D01*
X106610489Y-138973387D01*
X106526613Y-138889511D01*
X106423886Y-138830201D01*
X106309309Y-138799500D01*
X106190691Y-138799500D01*
X106076114Y-138830201D01*
X106076112Y-138830201D01*
X106076112Y-138830202D01*
X105973387Y-138889511D01*
X105966941Y-138894458D01*
X105965351Y-138892386D01*
X105915394Y-138919666D01*
X105889036Y-138922500D01*
X104860964Y-138922500D01*
X104793925Y-138902815D01*
X104783248Y-138894211D01*
X104783059Y-138894458D01*
X104776615Y-138889513D01*
X104776613Y-138889511D01*
X104673886Y-138830201D01*
X104559309Y-138799500D01*
X104440691Y-138799500D01*
X104326114Y-138830201D01*
X104326112Y-138830201D01*
X104326112Y-138830202D01*
X104223387Y-138889511D01*
X104223384Y-138889513D01*
X104139513Y-138973384D01*
X104139511Y-138973387D01*
X104088091Y-139062449D01*
X104080201Y-139076114D01*
X104049500Y-139190691D01*
X78204500Y-139190691D01*
X78204500Y-133820247D01*
X113949500Y-133820247D01*
X113949500Y-135559752D01*
X113961131Y-135618229D01*
X113961132Y-135618230D01*
X114005447Y-135684552D01*
X114071769Y-135728867D01*
X114071770Y-135728868D01*
X114130247Y-135740499D01*
X114130250Y-135740500D01*
X114130252Y-135740500D01*
X115869750Y-135740500D01*
X115869751Y-135740499D01*
X115884568Y-135737552D01*
X115928229Y-135728868D01*
X115928229Y-135728867D01*
X115928231Y-135728867D01*
X115994552Y-135684552D01*
X116038867Y-135618231D01*
X116038867Y-135618229D01*
X116038868Y-135618229D01*
X116050499Y-135559752D01*
X116050500Y-135559750D01*
X116050500Y-133820249D01*
X116050499Y-133820247D01*
X116038868Y-133761770D01*
X116038867Y-133761769D01*
X115994552Y-133695447D01*
X115928230Y-133651132D01*
X115928229Y-133651131D01*
X115869752Y-133639500D01*
X115869748Y-133639500D01*
X114130252Y-133639500D01*
X114130247Y-133639500D01*
X114071770Y-133651131D01*
X114071769Y-133651132D01*
X114005447Y-133695447D01*
X113961132Y-133761769D01*
X113961131Y-133761770D01*
X113949500Y-133820247D01*
X78204500Y-133820247D01*
X78204500Y-131940691D01*
X103799500Y-131940691D01*
X103799500Y-132059309D01*
X103830201Y-132173886D01*
X103889511Y-132276613D01*
X103973387Y-132360489D01*
X104076114Y-132419799D01*
X104190691Y-132450500D01*
X104190694Y-132450500D01*
X104309306Y-132450500D01*
X104309309Y-132450500D01*
X104423886Y-132419799D01*
X104526613Y-132360489D01*
X104526620Y-132360481D01*
X104533059Y-132355542D01*
X104534648Y-132357613D01*
X104584606Y-132330334D01*
X104610964Y-132327500D01*
X105389036Y-132327500D01*
X105456075Y-132347185D01*
X105466751Y-132355788D01*
X105466941Y-132355542D01*
X105473382Y-132360484D01*
X105473387Y-132360489D01*
X105576114Y-132419799D01*
X105690691Y-132450500D01*
X105690694Y-132450500D01*
X105809306Y-132450500D01*
X105809309Y-132450500D01*
X105923886Y-132419799D01*
X106026613Y-132360489D01*
X106110489Y-132276613D01*
X106169799Y-132173886D01*
X106200500Y-132059309D01*
X106200500Y-131940691D01*
X106169799Y-131826114D01*
X106110489Y-131723387D01*
X106026613Y-131639511D01*
X105923886Y-131580201D01*
X105809309Y-131549500D01*
X105690691Y-131549500D01*
X105576114Y-131580201D01*
X105576112Y-131580201D01*
X105576112Y-131580202D01*
X105473387Y-131639511D01*
X105466941Y-131644458D01*
X105465351Y-131642386D01*
X105415394Y-131669666D01*
X105389036Y-131672500D01*
X104610964Y-131672500D01*
X104543925Y-131652815D01*
X104533248Y-131644211D01*
X104533059Y-131644458D01*
X104526615Y-131639513D01*
X104526613Y-131639511D01*
X104423886Y-131580201D01*
X104309309Y-131549500D01*
X104190691Y-131549500D01*
X104076114Y-131580201D01*
X104076112Y-131580201D01*
X104076112Y-131580202D01*
X103973387Y-131639511D01*
X103973384Y-131639513D01*
X103889513Y-131723384D01*
X103889511Y-131723387D01*
X103841233Y-131807007D01*
X103830201Y-131826114D01*
X103799500Y-131940691D01*
X78204500Y-131940691D01*
X78204500Y-128690164D01*
X78173527Y-128574569D01*
X78113691Y-128470930D01*
X78029070Y-128386309D01*
X77925431Y-128326473D01*
X77809836Y-128295500D01*
X77690164Y-128295500D01*
X77574569Y-128326473D01*
X77574566Y-128326474D01*
X77470933Y-128386307D01*
X77470927Y-128386311D01*
X77386311Y-128470927D01*
X77386307Y-128470933D01*
X77326474Y-128574566D01*
X77326473Y-128574569D01*
X77295500Y-128690164D01*
X60000500Y-128690164D01*
X60000500Y-125068995D01*
X60799499Y-125068995D01*
X60826418Y-125204322D01*
X60826421Y-125204332D01*
X60879221Y-125331804D01*
X60879228Y-125331817D01*
X60955885Y-125446541D01*
X60955888Y-125446545D01*
X61053454Y-125544111D01*
X61053458Y-125544114D01*
X61168182Y-125620771D01*
X61168195Y-125620778D01*
X61295667Y-125673578D01*
X61295672Y-125673580D01*
X61295676Y-125673580D01*
X61295677Y-125673581D01*
X61431004Y-125700500D01*
X61431007Y-125700500D01*
X61568995Y-125700500D01*
X61660041Y-125682389D01*
X61704328Y-125673580D01*
X61831811Y-125620775D01*
X61946542Y-125544114D01*
X62044114Y-125446542D01*
X62120775Y-125331811D01*
X62173580Y-125204328D01*
X62182389Y-125160041D01*
X62200500Y-125068995D01*
X62200500Y-124931004D01*
X62173581Y-124795677D01*
X62173580Y-124795676D01*
X62173580Y-124795672D01*
X62173578Y-124795667D01*
X62120778Y-124668195D01*
X62120771Y-124668182D01*
X62044114Y-124553458D01*
X62044111Y-124553454D01*
X61946545Y-124455888D01*
X61946541Y-124455885D01*
X61831817Y-124379228D01*
X61831804Y-124379221D01*
X61704332Y-124326421D01*
X61704322Y-124326418D01*
X61568995Y-124299500D01*
X61568993Y-124299500D01*
X61431007Y-124299500D01*
X61431005Y-124299500D01*
X61295677Y-124326418D01*
X61295667Y-124326421D01*
X61168195Y-124379221D01*
X61168182Y-124379228D01*
X61053458Y-124455885D01*
X61053454Y-124455888D01*
X60955888Y-124553454D01*
X60955885Y-124553458D01*
X60879228Y-124668182D01*
X60879221Y-124668195D01*
X60826421Y-124795667D01*
X60826418Y-124795677D01*
X60799500Y-124931004D01*
X60799500Y-124931007D01*
X60799500Y-125068993D01*
X60799500Y-125068995D01*
X60799499Y-125068995D01*
X60000500Y-125068995D01*
X60000500Y-123440164D01*
X83545500Y-123440164D01*
X83545500Y-123559836D01*
X83576473Y-123675431D01*
X83636309Y-123779070D01*
X83720930Y-123863691D01*
X83824569Y-123923527D01*
X83940164Y-123954500D01*
X86932552Y-123954500D01*
X86932568Y-123954501D01*
X86940164Y-123954501D01*
X87059835Y-123954501D01*
X87059836Y-123954501D01*
X87151002Y-123930072D01*
X87175431Y-123923527D01*
X87279070Y-123863691D01*
X87363691Y-123779070D01*
X87363692Y-123779067D01*
X87642760Y-123500000D01*
X123072769Y-123500000D01*
X124120854Y-123500000D01*
X124082370Y-123566657D01*
X124050000Y-123687465D01*
X124050000Y-123812535D01*
X124082370Y-123933343D01*
X124120854Y-124000000D01*
X123072769Y-124000000D01*
X123083242Y-124066126D01*
X123083242Y-124066129D01*
X123148904Y-124268217D01*
X123245379Y-124457557D01*
X123370272Y-124629459D01*
X123370276Y-124629464D01*
X123520535Y-124779723D01*
X123520540Y-124779727D01*
X123692442Y-124904620D01*
X123881782Y-125001095D01*
X124083872Y-125066757D01*
X124275000Y-125097029D01*
X124275000Y-124154145D01*
X124341657Y-124192630D01*
X124462465Y-124225000D01*
X124587535Y-124225000D01*
X124708343Y-124192630D01*
X124775000Y-124154145D01*
X124775000Y-125097028D01*
X124966127Y-125066757D01*
X125168217Y-125001095D01*
X125357557Y-124904620D01*
X125529459Y-124779727D01*
X125529464Y-124779723D01*
X125679723Y-124629464D01*
X125679727Y-124629459D01*
X125804620Y-124457557D01*
X125901095Y-124268217D01*
X125966757Y-124066129D01*
X125966757Y-124066126D01*
X125977231Y-124000000D01*
X124929146Y-124000000D01*
X124967630Y-123933343D01*
X125000000Y-123812535D01*
X125000000Y-123687465D01*
X124967630Y-123566657D01*
X124929146Y-123500000D01*
X125977231Y-123500000D01*
X125966757Y-123433873D01*
X125966757Y-123433870D01*
X125901095Y-123231782D01*
X125804620Y-123042442D01*
X125679727Y-122870540D01*
X125679723Y-122870535D01*
X125529464Y-122720276D01*
X125529459Y-122720272D01*
X125357557Y-122595379D01*
X125168216Y-122498904D01*
X125046144Y-122459240D01*
X124988468Y-122419802D01*
X124961270Y-122355444D01*
X124973185Y-122286597D01*
X125020429Y-122235122D01*
X125037006Y-122226749D01*
X125147598Y-122180941D01*
X125319655Y-122065977D01*
X125465977Y-121919655D01*
X125580941Y-121747598D01*
X125660130Y-121556420D01*
X125700500Y-121353465D01*
X125700500Y-121146535D01*
X125660130Y-120943580D01*
X125580941Y-120752402D01*
X125465977Y-120580345D01*
X125465975Y-120580342D01*
X125319657Y-120434024D01*
X125233626Y-120376541D01*
X125147598Y-120319059D01*
X124956420Y-120239870D01*
X124956412Y-120239868D01*
X124753469Y-120199500D01*
X124753465Y-120199500D01*
X124296535Y-120199500D01*
X124296530Y-120199500D01*
X124093587Y-120239868D01*
X124093579Y-120239870D01*
X123902403Y-120319058D01*
X123730342Y-120434024D01*
X123584024Y-120580342D01*
X123469058Y-120752403D01*
X123389870Y-120943579D01*
X123389868Y-120943587D01*
X123349500Y-121146530D01*
X123349500Y-121353469D01*
X123389868Y-121556412D01*
X123389870Y-121556420D01*
X123436166Y-121668189D01*
X123469059Y-121747598D01*
X123501181Y-121795672D01*
X123584024Y-121919657D01*
X123730342Y-122065975D01*
X123730345Y-122065977D01*
X123902402Y-122180941D01*
X124012990Y-122226748D01*
X124067393Y-122270589D01*
X124089458Y-122336883D01*
X124072179Y-122404582D01*
X124021042Y-122452193D01*
X124003856Y-122459240D01*
X123881781Y-122498905D01*
X123692442Y-122595379D01*
X123520540Y-122720272D01*
X123520535Y-122720276D01*
X123370276Y-122870535D01*
X123370272Y-122870540D01*
X123245379Y-123042442D01*
X123148904Y-123231782D01*
X123083242Y-123433870D01*
X123083242Y-123433873D01*
X123072769Y-123500000D01*
X87642760Y-123500000D01*
X87863691Y-123279069D01*
X87923527Y-123175430D01*
X87954501Y-123059836D01*
X87954501Y-122940164D01*
X87923527Y-122824569D01*
X87863691Y-122720930D01*
X87779070Y-122636309D01*
X87779068Y-122636308D01*
X87779066Y-122636306D01*
X87675434Y-122576474D01*
X87675435Y-122576474D01*
X87665954Y-122573933D01*
X87559836Y-122545499D01*
X87440164Y-122545499D01*
X87338227Y-122572813D01*
X87324566Y-122576474D01*
X87220934Y-122636306D01*
X87220928Y-122636311D01*
X86848059Y-123009181D01*
X86786736Y-123042666D01*
X86760378Y-123045500D01*
X83940164Y-123045500D01*
X83824569Y-123076473D01*
X83824566Y-123076474D01*
X83720933Y-123136307D01*
X83720927Y-123136311D01*
X83636311Y-123220927D01*
X83636307Y-123220933D01*
X83576474Y-123324566D01*
X83576473Y-123324569D01*
X83545500Y-123440164D01*
X60000500Y-123440164D01*
X60000500Y-122068995D01*
X60799499Y-122068995D01*
X60826418Y-122204322D01*
X60826421Y-122204332D01*
X60879221Y-122331804D01*
X60879228Y-122331817D01*
X60955885Y-122446541D01*
X60955888Y-122446545D01*
X61053454Y-122544111D01*
X61053458Y-122544114D01*
X61168182Y-122620771D01*
X61168195Y-122620778D01*
X61295667Y-122673578D01*
X61295672Y-122673580D01*
X61295676Y-122673580D01*
X61295677Y-122673581D01*
X61431004Y-122700500D01*
X61431007Y-122700500D01*
X61568995Y-122700500D01*
X61660041Y-122682389D01*
X61704328Y-122673580D01*
X61831811Y-122620775D01*
X61946542Y-122544114D01*
X62044114Y-122446542D01*
X62120775Y-122331811D01*
X62173580Y-122204328D01*
X62200500Y-122068993D01*
X62200500Y-121931007D01*
X62200500Y-121931004D01*
X62173581Y-121795677D01*
X62173580Y-121795676D01*
X62173580Y-121795672D01*
X62153667Y-121747598D01*
X62120778Y-121668195D01*
X62120771Y-121668182D01*
X62044114Y-121553458D01*
X62044111Y-121553454D01*
X61946545Y-121455888D01*
X61946541Y-121455885D01*
X61831817Y-121379228D01*
X61831804Y-121379221D01*
X61704332Y-121326421D01*
X61704322Y-121326418D01*
X61568995Y-121299500D01*
X61568993Y-121299500D01*
X61431007Y-121299500D01*
X61431005Y-121299500D01*
X61295677Y-121326418D01*
X61295667Y-121326421D01*
X61168195Y-121379221D01*
X61168182Y-121379228D01*
X61053458Y-121455885D01*
X61053454Y-121455888D01*
X60955888Y-121553454D01*
X60955885Y-121553458D01*
X60879228Y-121668182D01*
X60879221Y-121668195D01*
X60826421Y-121795667D01*
X60826418Y-121795677D01*
X60799500Y-121931004D01*
X60799500Y-121931007D01*
X60799500Y-122068993D01*
X60799500Y-122068995D01*
X60799499Y-122068995D01*
X60000500Y-122068995D01*
X60000500Y-118190164D01*
X80045500Y-118190164D01*
X80045500Y-119809836D01*
X80076473Y-119925431D01*
X80136309Y-120029070D01*
X80220930Y-120113691D01*
X80324569Y-120173527D01*
X80440164Y-120204500D01*
X80440166Y-120204500D01*
X80559834Y-120204500D01*
X80559836Y-120204500D01*
X80675431Y-120173527D01*
X80779070Y-120113691D01*
X80863691Y-120029070D01*
X80923527Y-119925431D01*
X80954500Y-119809836D01*
X80954500Y-118190164D01*
X80923527Y-118074569D01*
X80863691Y-117970930D01*
X80779070Y-117886309D01*
X80675431Y-117826473D01*
X80559836Y-117795500D01*
X80440164Y-117795500D01*
X80324569Y-117826473D01*
X80324566Y-117826474D01*
X80220933Y-117886307D01*
X80220927Y-117886311D01*
X80136311Y-117970927D01*
X80136307Y-117970933D01*
X80076474Y-118074566D01*
X80076473Y-118074569D01*
X80045500Y-118190164D01*
X60000500Y-118190164D01*
X60000500Y-117190691D01*
X88733498Y-117190691D01*
X88733498Y-117309309D01*
X88764199Y-117423886D01*
X88823509Y-117526613D01*
X88907385Y-117610489D01*
X89010112Y-117669799D01*
X89124689Y-117700500D01*
X89124692Y-117700500D01*
X89243304Y-117700500D01*
X89243307Y-117700500D01*
X89357884Y-117669799D01*
X89460611Y-117610489D01*
X89460618Y-117610481D01*
X89467057Y-117605542D01*
X89468646Y-117607613D01*
X89518604Y-117580334D01*
X89544962Y-117577500D01*
X91889036Y-117577500D01*
X91956075Y-117597185D01*
X91966751Y-117605788D01*
X91966941Y-117605542D01*
X91973382Y-117610484D01*
X91973387Y-117610489D01*
X92076114Y-117669799D01*
X92190691Y-117700500D01*
X92190694Y-117700500D01*
X92309306Y-117700500D01*
X92309309Y-117700500D01*
X92423886Y-117669799D01*
X92526613Y-117610489D01*
X92610489Y-117526613D01*
X92669799Y-117423886D01*
X92700500Y-117309309D01*
X92700500Y-117190691D01*
X97299500Y-117190691D01*
X97299500Y-117309309D01*
X97330201Y-117423886D01*
X97389511Y-117526613D01*
X97473387Y-117610489D01*
X97576114Y-117669799D01*
X97690691Y-117700500D01*
X97690694Y-117700500D01*
X97698751Y-117701561D01*
X97698410Y-117704149D01*
X97753022Y-117720185D01*
X97773664Y-117736819D01*
X99048910Y-119012065D01*
X99123590Y-119055181D01*
X99152270Y-119062865D01*
X99207857Y-119094959D01*
X99223387Y-119110489D01*
X99326114Y-119169799D01*
X99440691Y-119200500D01*
X99440694Y-119200500D01*
X99559306Y-119200500D01*
X99559309Y-119200500D01*
X99673886Y-119169799D01*
X99776613Y-119110489D01*
X99860489Y-119026613D01*
X99919799Y-118923886D01*
X99950500Y-118809309D01*
X99950500Y-118690691D01*
X99938667Y-118646530D01*
X123349500Y-118646530D01*
X123349500Y-118853469D01*
X123389868Y-119056412D01*
X123389870Y-119056420D01*
X123469058Y-119247596D01*
X123584024Y-119419657D01*
X123730342Y-119565975D01*
X123730345Y-119565977D01*
X123902402Y-119680941D01*
X124093580Y-119760130D01*
X124296530Y-119800499D01*
X124296534Y-119800500D01*
X124296535Y-119800500D01*
X124753466Y-119800500D01*
X124753467Y-119800499D01*
X124956420Y-119760130D01*
X125147598Y-119680941D01*
X125319655Y-119565977D01*
X125465977Y-119419655D01*
X125580941Y-119247598D01*
X125660130Y-119056420D01*
X125700500Y-118853465D01*
X125700500Y-118646535D01*
X125660130Y-118443580D01*
X125580941Y-118252402D01*
X125465977Y-118080345D01*
X125465975Y-118080342D01*
X125319657Y-117934024D01*
X125158695Y-117826474D01*
X125147598Y-117819059D01*
X124956420Y-117739870D01*
X124956412Y-117739868D01*
X124753469Y-117699500D01*
X124753465Y-117699500D01*
X124296535Y-117699500D01*
X124296530Y-117699500D01*
X124093587Y-117739868D01*
X124093579Y-117739870D01*
X123902403Y-117819058D01*
X123730342Y-117934024D01*
X123584024Y-118080342D01*
X123469058Y-118252403D01*
X123389870Y-118443579D01*
X123389868Y-118443587D01*
X123349500Y-118646530D01*
X99938667Y-118646530D01*
X99919799Y-118576114D01*
X99860489Y-118473387D01*
X99776613Y-118389511D01*
X99673886Y-118330201D01*
X99559309Y-118299500D01*
X99440691Y-118299500D01*
X99440689Y-118299500D01*
X99369428Y-118318594D01*
X99299578Y-118316931D01*
X99249655Y-118286500D01*
X98236819Y-117273664D01*
X98203334Y-117212341D01*
X98201868Y-117198710D01*
X98201561Y-117198751D01*
X98200500Y-117190694D01*
X98200500Y-117190693D01*
X98200500Y-117190691D01*
X98169799Y-117076114D01*
X98110489Y-116973387D01*
X98026613Y-116889511D01*
X97923886Y-116830201D01*
X97809309Y-116799500D01*
X97690691Y-116799500D01*
X97576114Y-116830201D01*
X97576112Y-116830201D01*
X97576112Y-116830202D01*
X97473387Y-116889511D01*
X97473384Y-116889513D01*
X97389513Y-116973384D01*
X97389511Y-116973387D01*
X97337841Y-117062882D01*
X97330201Y-117076114D01*
X97299500Y-117190691D01*
X92700500Y-117190691D01*
X92669799Y-117076114D01*
X92610489Y-116973387D01*
X92526613Y-116889511D01*
X92423886Y-116830201D01*
X92309309Y-116799500D01*
X92190691Y-116799500D01*
X92076114Y-116830201D01*
X92076112Y-116830201D01*
X92076112Y-116830202D01*
X91973387Y-116889511D01*
X91966941Y-116894458D01*
X91965351Y-116892386D01*
X91915394Y-116919666D01*
X91889036Y-116922500D01*
X89544962Y-116922500D01*
X89477923Y-116902815D01*
X89467246Y-116894211D01*
X89467057Y-116894458D01*
X89460613Y-116889513D01*
X89460611Y-116889511D01*
X89357884Y-116830201D01*
X89243307Y-116799500D01*
X89124689Y-116799500D01*
X89010112Y-116830201D01*
X89010110Y-116830201D01*
X89010110Y-116830202D01*
X88907385Y-116889511D01*
X88907382Y-116889513D01*
X88823511Y-116973384D01*
X88823509Y-116973387D01*
X88771839Y-117062882D01*
X88764199Y-117076114D01*
X88733498Y-117190691D01*
X60000500Y-117190691D01*
X60000500Y-113440691D01*
X97549500Y-113440691D01*
X97549500Y-113559309D01*
X97580201Y-113673886D01*
X97639511Y-113776613D01*
X97723387Y-113860489D01*
X97826114Y-113919799D01*
X97940691Y-113950500D01*
X97940694Y-113950500D01*
X98059306Y-113950500D01*
X98059309Y-113950500D01*
X98173886Y-113919799D01*
X98276613Y-113860489D01*
X98360489Y-113776613D01*
X98419799Y-113673886D01*
X98450500Y-113559309D01*
X98450500Y-113440691D01*
X98419799Y-113326114D01*
X98360489Y-113223387D01*
X98360484Y-113223382D01*
X98355542Y-113216941D01*
X98357613Y-113215351D01*
X98330334Y-113165394D01*
X98327500Y-113139036D01*
X98327500Y-111940691D01*
X99299500Y-111940691D01*
X99299500Y-112059309D01*
X99330201Y-112173886D01*
X99389511Y-112276613D01*
X99473387Y-112360489D01*
X99576114Y-112419799D01*
X99690691Y-112450500D01*
X99690694Y-112450500D01*
X99698751Y-112451561D01*
X99698410Y-112454149D01*
X99715423Y-112459144D01*
X99745410Y-112465668D01*
X99750425Y-112469422D01*
X99753022Y-112470185D01*
X99773664Y-112486819D01*
X99886181Y-112599336D01*
X99919666Y-112660659D01*
X99922500Y-112687017D01*
X99922500Y-116139036D01*
X99902815Y-116206075D01*
X99894211Y-116216751D01*
X99894458Y-116216941D01*
X99889511Y-116223387D01*
X99830201Y-116326114D01*
X99799500Y-116440691D01*
X99799500Y-116559309D01*
X99830201Y-116673886D01*
X99889511Y-116776613D01*
X99973387Y-116860489D01*
X100076114Y-116919799D01*
X100190691Y-116950500D01*
X100190694Y-116950500D01*
X100309306Y-116950500D01*
X100309309Y-116950500D01*
X100423886Y-116919799D01*
X100526613Y-116860489D01*
X100610489Y-116776613D01*
X100669799Y-116673886D01*
X100700500Y-116559309D01*
X100700500Y-116440691D01*
X100669799Y-116326114D01*
X100610489Y-116223387D01*
X100610484Y-116223382D01*
X100605542Y-116216941D01*
X100607613Y-116215351D01*
X100580334Y-116165394D01*
X100577500Y-116139036D01*
X100577500Y-115440164D01*
X106045499Y-115440164D01*
X106045499Y-115559836D01*
X106076473Y-115675430D01*
X106136310Y-115779070D01*
X106220930Y-115863690D01*
X106324570Y-115923527D01*
X106440164Y-115954501D01*
X106440166Y-115954501D01*
X106559834Y-115954501D01*
X106559836Y-115954501D01*
X106675430Y-115923527D01*
X106779070Y-115863690D01*
X106901941Y-115740819D01*
X106963264Y-115707334D01*
X106989622Y-115704500D01*
X107359036Y-115704500D01*
X107426075Y-115724185D01*
X107471830Y-115776989D01*
X107481774Y-115846147D01*
X107452749Y-115909703D01*
X107446717Y-115916181D01*
X107389513Y-115973384D01*
X107389511Y-115973387D01*
X107330201Y-116076114D01*
X107299500Y-116190691D01*
X107299500Y-116309309D01*
X107330201Y-116423886D01*
X107389511Y-116526613D01*
X107473387Y-116610489D01*
X107576114Y-116669799D01*
X107690691Y-116700500D01*
X107690694Y-116700500D01*
X107809306Y-116700500D01*
X107809309Y-116700500D01*
X107923886Y-116669799D01*
X108026613Y-116610489D01*
X108026620Y-116610481D01*
X108033059Y-116605542D01*
X108034648Y-116607613D01*
X108084606Y-116580334D01*
X108110964Y-116577500D01*
X111639036Y-116577500D01*
X111706075Y-116597185D01*
X111716751Y-116605788D01*
X111716941Y-116605542D01*
X111723382Y-116610484D01*
X111723387Y-116610489D01*
X111826114Y-116669799D01*
X111940691Y-116700500D01*
X111940694Y-116700500D01*
X112059306Y-116700500D01*
X112059309Y-116700500D01*
X112173886Y-116669799D01*
X112276613Y-116610489D01*
X112360489Y-116526613D01*
X112419799Y-116423886D01*
X112450500Y-116309309D01*
X112450500Y-116190691D01*
X112419799Y-116076114D01*
X112360489Y-115973387D01*
X112276613Y-115889511D01*
X112261994Y-115881070D01*
X112224972Y-115859695D01*
X112176758Y-115809127D01*
X112163536Y-115740520D01*
X112189505Y-115675656D01*
X112224971Y-115644924D01*
X112279070Y-115613691D01*
X112363691Y-115529070D01*
X112423527Y-115425431D01*
X112454500Y-115309836D01*
X112454500Y-115190164D01*
X114545500Y-115190164D01*
X114545500Y-117059835D01*
X114576473Y-117175430D01*
X114576474Y-117175433D01*
X114585285Y-117190694D01*
X114636309Y-117279070D01*
X114720930Y-117363691D01*
X114824569Y-117423527D01*
X114940164Y-117454500D01*
X114940166Y-117454500D01*
X115059834Y-117454500D01*
X115059836Y-117454500D01*
X115175431Y-117423527D01*
X115279070Y-117363691D01*
X115363691Y-117279070D01*
X115423527Y-117175431D01*
X115454500Y-117059836D01*
X115454500Y-116440164D01*
X118795499Y-116440164D01*
X118795499Y-116559836D01*
X118826473Y-116675430D01*
X118886310Y-116779070D01*
X118970930Y-116863690D01*
X119074570Y-116923527D01*
X119190164Y-116954501D01*
X119190166Y-116954501D01*
X119309834Y-116954501D01*
X119309836Y-116954501D01*
X119425430Y-116923527D01*
X119529070Y-116863690D01*
X119651941Y-116740819D01*
X119713264Y-116707334D01*
X119739622Y-116704500D01*
X123225500Y-116704500D01*
X123292539Y-116724185D01*
X123338294Y-116776989D01*
X123349500Y-116828500D01*
X123349500Y-116904269D01*
X123352353Y-116934699D01*
X123352353Y-116934701D01*
X123396141Y-117059836D01*
X123397207Y-117062882D01*
X123477850Y-117172150D01*
X123587118Y-117252793D01*
X123629845Y-117267744D01*
X123715299Y-117297646D01*
X123745730Y-117300500D01*
X123745734Y-117300500D01*
X125304270Y-117300500D01*
X125334699Y-117297646D01*
X125334701Y-117297646D01*
X125403236Y-117273664D01*
X125462882Y-117252793D01*
X125572150Y-117172150D01*
X125652793Y-117062882D01*
X125690717Y-116954501D01*
X125697646Y-116934701D01*
X125697646Y-116934699D01*
X125700500Y-116904269D01*
X125700500Y-115595730D01*
X125697646Y-115565300D01*
X125697646Y-115565298D01*
X125652793Y-115437119D01*
X125652792Y-115437117D01*
X125644169Y-115425433D01*
X125572150Y-115327850D01*
X125462882Y-115247207D01*
X125462880Y-115247206D01*
X125334700Y-115202353D01*
X125304270Y-115199500D01*
X125304266Y-115199500D01*
X123745734Y-115199500D01*
X123745730Y-115199500D01*
X123715300Y-115202353D01*
X123715298Y-115202353D01*
X123587119Y-115247206D01*
X123587117Y-115247207D01*
X123477850Y-115327850D01*
X123397207Y-115437117D01*
X123397206Y-115437119D01*
X123352353Y-115565298D01*
X123352353Y-115565300D01*
X123349500Y-115595730D01*
X123349500Y-115671500D01*
X123329815Y-115738539D01*
X123277011Y-115784294D01*
X123225500Y-115795500D01*
X119440164Y-115795500D01*
X119324569Y-115826473D01*
X119324566Y-115826474D01*
X119220933Y-115886307D01*
X119220927Y-115886311D01*
X119136307Y-115970932D01*
X118886312Y-116220927D01*
X118886310Y-116220930D01*
X118826473Y-116324569D01*
X118826473Y-116324570D01*
X118795499Y-116440164D01*
X115454500Y-116440164D01*
X115454500Y-115190164D01*
X115423527Y-115074569D01*
X115363691Y-114970930D01*
X115279070Y-114886309D01*
X115175431Y-114826473D01*
X115059836Y-114795500D01*
X114940164Y-114795500D01*
X114824569Y-114826473D01*
X114824566Y-114826474D01*
X114720933Y-114886307D01*
X114720927Y-114886311D01*
X114636311Y-114970927D01*
X114636308Y-114970932D01*
X114576474Y-115074566D01*
X114576473Y-115074569D01*
X114545500Y-115190164D01*
X112454500Y-115190164D01*
X112423527Y-115074569D01*
X112363691Y-114970930D01*
X112279070Y-114886309D01*
X112175431Y-114826473D01*
X112059836Y-114795500D01*
X106690164Y-114795500D01*
X106574569Y-114826473D01*
X106574566Y-114826474D01*
X106470933Y-114886307D01*
X106470927Y-114886311D01*
X106386307Y-114970932D01*
X106136312Y-115220927D01*
X106136310Y-115220930D01*
X106076473Y-115324569D01*
X106076473Y-115324570D01*
X106045499Y-115440164D01*
X100577500Y-115440164D01*
X100577500Y-112456885D01*
X100576767Y-112454149D01*
X100555181Y-112373590D01*
X100512065Y-112298910D01*
X100451090Y-112237935D01*
X100236819Y-112023664D01*
X100203334Y-111962341D01*
X100201868Y-111948710D01*
X100201561Y-111948751D01*
X100200500Y-111940694D01*
X100200500Y-111940693D01*
X100200500Y-111940691D01*
X100169799Y-111826114D01*
X100110489Y-111723387D01*
X100026613Y-111639511D01*
X99923886Y-111580201D01*
X99809309Y-111549500D01*
X99690691Y-111549500D01*
X99576114Y-111580201D01*
X99576112Y-111580201D01*
X99576112Y-111580202D01*
X99473387Y-111639511D01*
X99473384Y-111639513D01*
X99389513Y-111723384D01*
X99389511Y-111723387D01*
X99330201Y-111826114D01*
X99299500Y-111940691D01*
X98327500Y-111940691D01*
X98327500Y-111736311D01*
X98347185Y-111669272D01*
X98389498Y-111628924D01*
X98488113Y-111571989D01*
X98571989Y-111488113D01*
X98631299Y-111385386D01*
X98662000Y-111270809D01*
X98662000Y-111152191D01*
X98631299Y-111037614D01*
X98571989Y-110934887D01*
X98488113Y-110851011D01*
X98385386Y-110791701D01*
X98270809Y-110761000D01*
X98152191Y-110761000D01*
X98037614Y-110791701D01*
X98037612Y-110791701D01*
X98037612Y-110791702D01*
X97934887Y-110851011D01*
X97934884Y-110851013D01*
X97851013Y-110934884D01*
X97851011Y-110934887D01*
X97791701Y-111037614D01*
X97782649Y-111071396D01*
X97760999Y-111152194D01*
X97759939Y-111160251D01*
X97757994Y-111159994D01*
X97741897Y-111214812D01*
X97741999Y-111214871D01*
X97741757Y-111215288D01*
X97741315Y-111216797D01*
X97738920Y-111220202D01*
X97694819Y-111296589D01*
X97672500Y-111379885D01*
X97672500Y-113139036D01*
X97652815Y-113206075D01*
X97644211Y-113216751D01*
X97644458Y-113216941D01*
X97639511Y-113223387D01*
X97580201Y-113326114D01*
X97549500Y-113440691D01*
X60000500Y-113440691D01*
X60000500Y-111159077D01*
X60020185Y-111092038D01*
X60072989Y-111046283D01*
X60142147Y-111036339D01*
X60205703Y-111065364D01*
X60212181Y-111071396D01*
X60237533Y-111096748D01*
X60237537Y-111096751D01*
X60401315Y-111206185D01*
X60401328Y-111206192D01*
X60583306Y-111281569D01*
X60583318Y-111281572D01*
X60776504Y-111319999D01*
X60776508Y-111320000D01*
X60925000Y-111320000D01*
X60925000Y-110620000D01*
X61425000Y-110620000D01*
X61425000Y-111320000D01*
X61573492Y-111320000D01*
X61573495Y-111319999D01*
X61766681Y-111281572D01*
X61766693Y-111281569D01*
X61948671Y-111206192D01*
X61948684Y-111206185D01*
X62112462Y-111096751D01*
X62112466Y-111096748D01*
X62251748Y-110957466D01*
X62251751Y-110957462D01*
X62361185Y-110793684D01*
X62361192Y-110793671D01*
X62436569Y-110611692D01*
X62436569Y-110611690D01*
X62444862Y-110570000D01*
X61641988Y-110570000D01*
X61659205Y-110560060D01*
X61715060Y-110504205D01*
X61754556Y-110435796D01*
X61775000Y-110359496D01*
X61775000Y-110280504D01*
X61754556Y-110204204D01*
X61715060Y-110135795D01*
X61659205Y-110079940D01*
X61641988Y-110070000D01*
X62444862Y-110070000D01*
X63835138Y-110070000D01*
X64638012Y-110070000D01*
X64620795Y-110079940D01*
X64564940Y-110135795D01*
X64525444Y-110204204D01*
X64505000Y-110280504D01*
X64505000Y-110359496D01*
X64525444Y-110435796D01*
X64564940Y-110504205D01*
X64620795Y-110560060D01*
X64638012Y-110570000D01*
X63835138Y-110570000D01*
X63843430Y-110611690D01*
X63843430Y-110611692D01*
X63918807Y-110793671D01*
X63918814Y-110793684D01*
X64028248Y-110957462D01*
X64028251Y-110957466D01*
X64167533Y-111096748D01*
X64167537Y-111096751D01*
X64331315Y-111206185D01*
X64331328Y-111206192D01*
X64513306Y-111281569D01*
X64513318Y-111281572D01*
X64706504Y-111319999D01*
X64706508Y-111320000D01*
X65105000Y-111320000D01*
X65105000Y-110620000D01*
X65605000Y-110620000D01*
X65605000Y-111320000D01*
X66003492Y-111320000D01*
X66003495Y-111319999D01*
X66196681Y-111281572D01*
X66196693Y-111281569D01*
X66378671Y-111206192D01*
X66378684Y-111206185D01*
X66542462Y-111096751D01*
X66542466Y-111096748D01*
X66681748Y-110957466D01*
X66681751Y-110957462D01*
X66791185Y-110793684D01*
X66791192Y-110793671D01*
X66866569Y-110611692D01*
X66866569Y-110611690D01*
X66874862Y-110570000D01*
X66071988Y-110570000D01*
X66089205Y-110560060D01*
X66145060Y-110504205D01*
X66184556Y-110435796D01*
X66205000Y-110359496D01*
X66205000Y-110280504D01*
X66184556Y-110204204D01*
X66145060Y-110135795D01*
X66089205Y-110079940D01*
X66071988Y-110070000D01*
X66874862Y-110070000D01*
X66866569Y-110028309D01*
X66866569Y-110028307D01*
X66791192Y-109846328D01*
X66791185Y-109846315D01*
X66681751Y-109682537D01*
X66681748Y-109682533D01*
X66542466Y-109543251D01*
X66542462Y-109543248D01*
X66378684Y-109433814D01*
X66378671Y-109433807D01*
X66196693Y-109358430D01*
X66196681Y-109358427D01*
X66003495Y-109320000D01*
X65605000Y-109320000D01*
X65605000Y-110020000D01*
X65105000Y-110020000D01*
X65105000Y-109481784D01*
X65124685Y-109414745D01*
X65167000Y-109374397D01*
X65208365Y-109350515D01*
X65315515Y-109243365D01*
X65316372Y-109241879D01*
X65336721Y-109206637D01*
X65391279Y-109112138D01*
X65391281Y-109112135D01*
X65430500Y-108965766D01*
X65430500Y-108814234D01*
X65391281Y-108667865D01*
X65315515Y-108536635D01*
X65208365Y-108429485D01*
X65142750Y-108391602D01*
X65077136Y-108353719D01*
X65003950Y-108334109D01*
X64930766Y-108314500D01*
X64779234Y-108314500D01*
X64632863Y-108353719D01*
X64501635Y-108429485D01*
X64501632Y-108429487D01*
X64394487Y-108536632D01*
X64394485Y-108536635D01*
X64318719Y-108667863D01*
X64279500Y-108814234D01*
X64279500Y-108965765D01*
X64318719Y-109112136D01*
X64358153Y-109180437D01*
X64394485Y-109243365D01*
X64394486Y-109243366D01*
X64398549Y-109250403D01*
X64396346Y-109251674D01*
X64416959Y-109304983D01*
X64402923Y-109373428D01*
X64354112Y-109423420D01*
X64340845Y-109429866D01*
X64331324Y-109433809D01*
X64331315Y-109433814D01*
X64167537Y-109543248D01*
X64167533Y-109543251D01*
X64028251Y-109682533D01*
X64028248Y-109682537D01*
X63918814Y-109846315D01*
X63918807Y-109846328D01*
X63843430Y-110028307D01*
X63843430Y-110028309D01*
X63835138Y-110070000D01*
X62444862Y-110070000D01*
X62436569Y-110028309D01*
X62436569Y-110028307D01*
X62361192Y-109846328D01*
X62361185Y-109846315D01*
X62251751Y-109682537D01*
X62251748Y-109682533D01*
X62112466Y-109543251D01*
X62112462Y-109543248D01*
X61948684Y-109433814D01*
X61948671Y-109433807D01*
X61766693Y-109358430D01*
X61766681Y-109358427D01*
X61573495Y-109320000D01*
X61425000Y-109320000D01*
X61425000Y-110020000D01*
X60925000Y-110020000D01*
X60925000Y-109320000D01*
X60776504Y-109320000D01*
X60583318Y-109358427D01*
X60583306Y-109358430D01*
X60401328Y-109433807D01*
X60401315Y-109433814D01*
X60237537Y-109543248D01*
X60237533Y-109543251D01*
X60212181Y-109568604D01*
X60150858Y-109602089D01*
X60081166Y-109597105D01*
X60025233Y-109555233D01*
X60000816Y-109489769D01*
X60000500Y-109480923D01*
X60000500Y-106940691D01*
X71549500Y-106940691D01*
X71549500Y-107059309D01*
X71580201Y-107173886D01*
X71639511Y-107276613D01*
X71723387Y-107360489D01*
X71826114Y-107419799D01*
X71940691Y-107450500D01*
X71940694Y-107450500D01*
X72059306Y-107450500D01*
X72059309Y-107450500D01*
X72173886Y-107419799D01*
X72276613Y-107360489D01*
X72360489Y-107276613D01*
X72419799Y-107173886D01*
X72450500Y-107059309D01*
X72450500Y-106940691D01*
X72419799Y-106826114D01*
X72360489Y-106723387D01*
X72360484Y-106723382D01*
X72355542Y-106716941D01*
X72357613Y-106715351D01*
X72330334Y-106665394D01*
X72327500Y-106639036D01*
X72327500Y-105790773D01*
X72347185Y-105723734D01*
X72399989Y-105677979D01*
X72419400Y-105671000D01*
X72423886Y-105669799D01*
X72526613Y-105610489D01*
X72610489Y-105526613D01*
X72669799Y-105423886D01*
X72700500Y-105309309D01*
X72700500Y-105190691D01*
X72669799Y-105076114D01*
X72610489Y-104973387D01*
X72526613Y-104889511D01*
X72423886Y-104830201D01*
X72309309Y-104799500D01*
X72190691Y-104799500D01*
X72076114Y-104830201D01*
X72076112Y-104830201D01*
X72076112Y-104830202D01*
X71973387Y-104889511D01*
X71973384Y-104889513D01*
X71889513Y-104973384D01*
X71889511Y-104973387D01*
X71830202Y-105076112D01*
X71799499Y-105190694D01*
X71798439Y-105198751D01*
X71795850Y-105198410D01*
X71779815Y-105253022D01*
X71763181Y-105273664D01*
X71737936Y-105298908D01*
X71737934Y-105298911D01*
X71694819Y-105373589D01*
X71672500Y-105456885D01*
X71672500Y-106639036D01*
X71652815Y-106706075D01*
X71644211Y-106716751D01*
X71644458Y-106716941D01*
X71639511Y-106723387D01*
X71608780Y-106776615D01*
X71580201Y-106826114D01*
X71549500Y-106940691D01*
X60000500Y-106940691D01*
X60000500Y-104684108D01*
X78749500Y-104684108D01*
X78749500Y-104815892D01*
X78766554Y-104879539D01*
X78783608Y-104943187D01*
X78816554Y-105000250D01*
X78849500Y-105057314D01*
X78849502Y-105057316D01*
X78913181Y-105120995D01*
X78946666Y-105182318D01*
X78949500Y-105208676D01*
X78949500Y-106291323D01*
X78929815Y-106358362D01*
X78913182Y-106379004D01*
X78849500Y-106442686D01*
X78783608Y-106556812D01*
X78755384Y-106662148D01*
X78749500Y-106684108D01*
X78749500Y-106815892D01*
X78761449Y-106860486D01*
X78783608Y-106943187D01*
X78816554Y-107000250D01*
X78849500Y-107057314D01*
X78942686Y-107150500D01*
X79056814Y-107216392D01*
X79184108Y-107250500D01*
X79184110Y-107250500D01*
X79315890Y-107250500D01*
X79315892Y-107250500D01*
X79443186Y-107216392D01*
X79557314Y-107150500D01*
X79650500Y-107057314D01*
X79716392Y-106943186D01*
X79750500Y-106815892D01*
X79750500Y-106684108D01*
X79716392Y-106556814D01*
X79650500Y-106442686D01*
X79648505Y-106440691D01*
X92299500Y-106440691D01*
X92299500Y-106559309D01*
X92330201Y-106673886D01*
X92389511Y-106776613D01*
X92473387Y-106860489D01*
X92576114Y-106919799D01*
X92690691Y-106950500D01*
X92690694Y-106950500D01*
X92698751Y-106951561D01*
X92698410Y-106954149D01*
X92753022Y-106970185D01*
X92773664Y-106986819D01*
X93048910Y-107262065D01*
X93123590Y-107305181D01*
X93206884Y-107327500D01*
X93293116Y-107327500D01*
X95889036Y-107327500D01*
X95956075Y-107347185D01*
X95966751Y-107355788D01*
X95966941Y-107355542D01*
X95973382Y-107360484D01*
X95973387Y-107360489D01*
X96076114Y-107419799D01*
X96190691Y-107450500D01*
X96190694Y-107450500D01*
X96309306Y-107450500D01*
X96309309Y-107450500D01*
X96423886Y-107419799D01*
X96526613Y-107360489D01*
X96610489Y-107276613D01*
X96669799Y-107173886D01*
X96700500Y-107059309D01*
X96700500Y-106940691D01*
X96669799Y-106826114D01*
X96610489Y-106723387D01*
X96526613Y-106639511D01*
X96423886Y-106580201D01*
X96309309Y-106549500D01*
X96190691Y-106549500D01*
X96076114Y-106580201D01*
X96076112Y-106580201D01*
X96076112Y-106580202D01*
X95973387Y-106639511D01*
X95966941Y-106644458D01*
X95965351Y-106642386D01*
X95915394Y-106669666D01*
X95889036Y-106672500D01*
X93437017Y-106672500D01*
X93407576Y-106663855D01*
X93377590Y-106657332D01*
X93372574Y-106653577D01*
X93369978Y-106652815D01*
X93349336Y-106636181D01*
X93236819Y-106523664D01*
X93203334Y-106462341D01*
X93201868Y-106448710D01*
X93201561Y-106448751D01*
X93200500Y-106440694D01*
X93200500Y-106440693D01*
X93200500Y-106440691D01*
X93169799Y-106326114D01*
X93110489Y-106223387D01*
X93026613Y-106139511D01*
X92923886Y-106080201D01*
X92809309Y-106049500D01*
X92690691Y-106049500D01*
X92576114Y-106080201D01*
X92576112Y-106080201D01*
X92576112Y-106080202D01*
X92473387Y-106139511D01*
X92473384Y-106139513D01*
X92389513Y-106223384D01*
X92389511Y-106223387D01*
X92330201Y-106326114D01*
X92299500Y-106440691D01*
X79648505Y-106440691D01*
X79582028Y-106374214D01*
X79577788Y-106368930D01*
X79566959Y-106342634D01*
X79553334Y-106317680D01*
X79552150Y-106306672D01*
X79551183Y-106304323D01*
X79551632Y-106301858D01*
X79550500Y-106291323D01*
X79550500Y-105940164D01*
X98295500Y-105940164D01*
X98295500Y-108309836D01*
X98326060Y-108423887D01*
X98326473Y-108425430D01*
X98326474Y-108425433D01*
X98346418Y-108459977D01*
X98386309Y-108529070D01*
X98470930Y-108613691D01*
X98574569Y-108673527D01*
X98690164Y-108704500D01*
X98690166Y-108704500D01*
X98809834Y-108704500D01*
X98809836Y-108704500D01*
X98925431Y-108673527D01*
X99029070Y-108613691D01*
X99113691Y-108529070D01*
X99173527Y-108425431D01*
X99204500Y-108309836D01*
X99204500Y-105940164D01*
X99173527Y-105824569D01*
X99113691Y-105720930D01*
X99082925Y-105690164D01*
X102295499Y-105690164D01*
X102295499Y-105809836D01*
X102295500Y-105809839D01*
X102295500Y-108309836D01*
X102326060Y-108423887D01*
X102326473Y-108425430D01*
X102326474Y-108425433D01*
X102346418Y-108459977D01*
X102386309Y-108529070D01*
X102470930Y-108613691D01*
X102574569Y-108673527D01*
X102690164Y-108704500D01*
X102690166Y-108704500D01*
X102809834Y-108704500D01*
X102809836Y-108704500D01*
X102925431Y-108673527D01*
X103029070Y-108613691D01*
X103113691Y-108529070D01*
X103144923Y-108474973D01*
X103195487Y-108426759D01*
X103264094Y-108413535D01*
X103328959Y-108439502D01*
X103359695Y-108474972D01*
X103360483Y-108476336D01*
X103389511Y-108526613D01*
X103473387Y-108610489D01*
X103576114Y-108669799D01*
X103690691Y-108700500D01*
X103690694Y-108700500D01*
X103809306Y-108700500D01*
X103809309Y-108700500D01*
X103923886Y-108669799D01*
X104026613Y-108610489D01*
X104110489Y-108526613D01*
X104169799Y-108423886D01*
X104200500Y-108309309D01*
X104200500Y-108190691D01*
X104169799Y-108076114D01*
X104110489Y-107973387D01*
X104110484Y-107973382D01*
X104105542Y-107966941D01*
X104107613Y-107965351D01*
X104080334Y-107915394D01*
X104077500Y-107889036D01*
X104077500Y-106940691D01*
X110549500Y-106940691D01*
X110549500Y-107059309D01*
X110580201Y-107173886D01*
X110639511Y-107276613D01*
X110639513Y-107276615D01*
X110644458Y-107283059D01*
X110642386Y-107284648D01*
X110669666Y-107334606D01*
X110672500Y-107360964D01*
X110672500Y-108889036D01*
X110652815Y-108956075D01*
X110644211Y-108966751D01*
X110644458Y-108966941D01*
X110639511Y-108973387D01*
X110580201Y-109076114D01*
X110549500Y-109190691D01*
X110549500Y-109309309D01*
X110580201Y-109423886D01*
X110639511Y-109526613D01*
X110723387Y-109610489D01*
X110826114Y-109669799D01*
X110940691Y-109700500D01*
X110940694Y-109700500D01*
X111059306Y-109700500D01*
X111059309Y-109700500D01*
X111173886Y-109669799D01*
X111276613Y-109610489D01*
X111360489Y-109526613D01*
X111419799Y-109423886D01*
X111450500Y-109309309D01*
X111450500Y-109190691D01*
X111419799Y-109076114D01*
X111360489Y-108973387D01*
X111360484Y-108973382D01*
X111355542Y-108966941D01*
X111357613Y-108965351D01*
X111330334Y-108915394D01*
X111327500Y-108889036D01*
X111327500Y-107360964D01*
X111347185Y-107293925D01*
X111355788Y-107283248D01*
X111355542Y-107283059D01*
X111360481Y-107276620D01*
X111360489Y-107276613D01*
X111419799Y-107173886D01*
X111450500Y-107059309D01*
X111450500Y-106940691D01*
X111419799Y-106826114D01*
X111360489Y-106723387D01*
X111276613Y-106639511D01*
X111173886Y-106580201D01*
X111069901Y-106552338D01*
X111066352Y-106551387D01*
X111059309Y-106549500D01*
X110940691Y-106549500D01*
X110826114Y-106580201D01*
X110826112Y-106580201D01*
X110826112Y-106580202D01*
X110723387Y-106639511D01*
X110723384Y-106639513D01*
X110639513Y-106723384D01*
X110639511Y-106723387D01*
X110608780Y-106776615D01*
X110580201Y-106826114D01*
X110549500Y-106940691D01*
X104077500Y-106940691D01*
X104077500Y-106610964D01*
X104097185Y-106543925D01*
X104105788Y-106533248D01*
X104105542Y-106533059D01*
X104110481Y-106526620D01*
X104110489Y-106526613D01*
X104160097Y-106440691D01*
X112549500Y-106440691D01*
X112549500Y-106559309D01*
X112580201Y-106673886D01*
X112639511Y-106776613D01*
X112723387Y-106860489D01*
X112826114Y-106919799D01*
X112940691Y-106950500D01*
X112940694Y-106950500D01*
X112948751Y-106951561D01*
X112948410Y-106954149D01*
X113003022Y-106970185D01*
X113023664Y-106986819D01*
X114513181Y-108476336D01*
X114546666Y-108537659D01*
X114548131Y-108551289D01*
X114548439Y-108551249D01*
X114549499Y-108559305D01*
X114549500Y-108559308D01*
X114549500Y-108559309D01*
X114580201Y-108673886D01*
X114639511Y-108776613D01*
X114723387Y-108860489D01*
X114826114Y-108919799D01*
X114940691Y-108950500D01*
X114940694Y-108950500D01*
X115059306Y-108950500D01*
X115059309Y-108950500D01*
X115173886Y-108919799D01*
X115245052Y-108878711D01*
X122149500Y-108878711D01*
X122149500Y-109121288D01*
X122181161Y-109361785D01*
X122243947Y-109596104D01*
X122336773Y-109820205D01*
X122336776Y-109820212D01*
X122458064Y-110030289D01*
X122458066Y-110030292D01*
X122458067Y-110030293D01*
X122605733Y-110222736D01*
X122605739Y-110222743D01*
X122777256Y-110394260D01*
X122777262Y-110394265D01*
X122969711Y-110541936D01*
X123179788Y-110663224D01*
X123403900Y-110756054D01*
X123638211Y-110818838D01*
X123818586Y-110842584D01*
X123878711Y-110850500D01*
X123878712Y-110850500D01*
X124121289Y-110850500D01*
X124169388Y-110844167D01*
X124361789Y-110818838D01*
X124596100Y-110756054D01*
X124820212Y-110663224D01*
X125030289Y-110541936D01*
X125222738Y-110394265D01*
X125394265Y-110222738D01*
X125541936Y-110030289D01*
X125663224Y-109820212D01*
X125756054Y-109596100D01*
X125818838Y-109361789D01*
X125850500Y-109121288D01*
X125850500Y-108878712D01*
X125818838Y-108638211D01*
X125756054Y-108403900D01*
X125663224Y-108179788D01*
X125541936Y-107969711D01*
X125480032Y-107889036D01*
X125394266Y-107777263D01*
X125394260Y-107777256D01*
X125222743Y-107605739D01*
X125222736Y-107605733D01*
X125030293Y-107458067D01*
X125030292Y-107458066D01*
X125030289Y-107458064D01*
X124820212Y-107336776D01*
X124797818Y-107327500D01*
X124596104Y-107243947D01*
X124361785Y-107181161D01*
X124121289Y-107149500D01*
X124121288Y-107149500D01*
X123878712Y-107149500D01*
X123878711Y-107149500D01*
X123638214Y-107181161D01*
X123403895Y-107243947D01*
X123179794Y-107336773D01*
X123179785Y-107336777D01*
X122969706Y-107458067D01*
X122777263Y-107605733D01*
X122777256Y-107605739D01*
X122605739Y-107777256D01*
X122605733Y-107777263D01*
X122458067Y-107969706D01*
X122336777Y-108179785D01*
X122336773Y-108179794D01*
X122243947Y-108403895D01*
X122181161Y-108638214D01*
X122149500Y-108878711D01*
X115245052Y-108878711D01*
X115276613Y-108860489D01*
X115360489Y-108776613D01*
X115419799Y-108673886D01*
X115450500Y-108559309D01*
X115450500Y-108440691D01*
X115419799Y-108326114D01*
X115419796Y-108326110D01*
X115418170Y-108320039D01*
X115419833Y-108250189D01*
X115458995Y-108192327D01*
X115523223Y-108164822D01*
X115570039Y-108168170D01*
X115576110Y-108169796D01*
X115576114Y-108169799D01*
X115690691Y-108200500D01*
X115690694Y-108200500D01*
X115809306Y-108200500D01*
X115809309Y-108200500D01*
X115923886Y-108169799D01*
X116026613Y-108110489D01*
X116110489Y-108026613D01*
X116169799Y-107923886D01*
X116200500Y-107809309D01*
X116200500Y-107690691D01*
X116169799Y-107576114D01*
X116110489Y-107473387D01*
X116026613Y-107389511D01*
X115923886Y-107330201D01*
X115809309Y-107299500D01*
X115809305Y-107299499D01*
X115801249Y-107298439D01*
X115801589Y-107295850D01*
X115746978Y-107279815D01*
X115726336Y-107263181D01*
X114236819Y-105773664D01*
X114203334Y-105712341D01*
X114201868Y-105698710D01*
X114201561Y-105698751D01*
X114200500Y-105690694D01*
X114200500Y-105690693D01*
X114200500Y-105690691D01*
X114169799Y-105576114D01*
X114110489Y-105473387D01*
X114026613Y-105389511D01*
X113923886Y-105330201D01*
X113809309Y-105299500D01*
X113690691Y-105299500D01*
X113576114Y-105330201D01*
X113576112Y-105330201D01*
X113576112Y-105330202D01*
X113473387Y-105389511D01*
X113473384Y-105389513D01*
X113389513Y-105473384D01*
X113389511Y-105473387D01*
X113331094Y-105574568D01*
X113330201Y-105576114D01*
X113299500Y-105690691D01*
X113299500Y-105809309D01*
X113320991Y-105889513D01*
X113331829Y-105929960D01*
X113330166Y-105999810D01*
X113291004Y-106057673D01*
X113226775Y-106085177D01*
X113179960Y-106081829D01*
X113173887Y-106080201D01*
X113173886Y-106080201D01*
X113059309Y-106049500D01*
X112940691Y-106049500D01*
X112826114Y-106080201D01*
X112826112Y-106080201D01*
X112826112Y-106080202D01*
X112723387Y-106139511D01*
X112723384Y-106139513D01*
X112639513Y-106223384D01*
X112639511Y-106223387D01*
X112580201Y-106326114D01*
X112549500Y-106440691D01*
X104160097Y-106440691D01*
X104169799Y-106423886D01*
X104200500Y-106309309D01*
X104200500Y-106190691D01*
X104169799Y-106076114D01*
X104110489Y-105973387D01*
X104026613Y-105889511D01*
X103923886Y-105830201D01*
X103809309Y-105799500D01*
X103690691Y-105799500D01*
X103690686Y-105799500D01*
X103663093Y-105806894D01*
X103593243Y-105805230D01*
X103535382Y-105766067D01*
X103507879Y-105701838D01*
X103519466Y-105632936D01*
X103543318Y-105599441D01*
X103901941Y-105240819D01*
X103963264Y-105207334D01*
X103989622Y-105204500D01*
X105559834Y-105204500D01*
X105559836Y-105204500D01*
X105675431Y-105173527D01*
X105779070Y-105113691D01*
X105863691Y-105029070D01*
X105923527Y-104925431D01*
X105954500Y-104809836D01*
X105954500Y-104690164D01*
X105923527Y-104574569D01*
X105863691Y-104470930D01*
X105779070Y-104386309D01*
X105675431Y-104326473D01*
X105559836Y-104295500D01*
X105559835Y-104295500D01*
X103817448Y-104295500D01*
X103817432Y-104295499D01*
X103809836Y-104295499D01*
X103690164Y-104295499D01*
X103574568Y-104326472D01*
X103534685Y-104349500D01*
X103470930Y-104386309D01*
X103470927Y-104386311D01*
X102386311Y-105470927D01*
X102386307Y-105470933D01*
X102326472Y-105574568D01*
X102326473Y-105574568D01*
X102326473Y-105574569D01*
X102326473Y-105574570D01*
X102295499Y-105690164D01*
X99082925Y-105690164D01*
X99029070Y-105636309D01*
X98925431Y-105576473D01*
X98809836Y-105545500D01*
X98690164Y-105545500D01*
X98574569Y-105576473D01*
X98574566Y-105576474D01*
X98470933Y-105636307D01*
X98470927Y-105636311D01*
X98386311Y-105720927D01*
X98386307Y-105720933D01*
X98326474Y-105824566D01*
X98326473Y-105824569D01*
X98295500Y-105940164D01*
X79550500Y-105940164D01*
X79550500Y-105208676D01*
X79570185Y-105141637D01*
X79586819Y-105120995D01*
X79594126Y-105113688D01*
X79650500Y-105057314D01*
X79716392Y-104943186D01*
X79750500Y-104815892D01*
X79750500Y-104684108D01*
X79716392Y-104556814D01*
X79650500Y-104442686D01*
X79557314Y-104349500D01*
X79465755Y-104296638D01*
X79443187Y-104283608D01*
X79379539Y-104266554D01*
X79315892Y-104249500D01*
X79184108Y-104249500D01*
X79056812Y-104283608D01*
X78942686Y-104349500D01*
X78942683Y-104349502D01*
X78849502Y-104442683D01*
X78849500Y-104442686D01*
X78783608Y-104556812D01*
X78749500Y-104684108D01*
X60000500Y-104684108D01*
X60000500Y-102519077D01*
X60020185Y-102452038D01*
X60072989Y-102406283D01*
X60142147Y-102396339D01*
X60205703Y-102425364D01*
X60212181Y-102431396D01*
X60237533Y-102456748D01*
X60237537Y-102456751D01*
X60401315Y-102566185D01*
X60401328Y-102566192D01*
X60583306Y-102641569D01*
X60583318Y-102641572D01*
X60776504Y-102679999D01*
X60776508Y-102680000D01*
X60925000Y-102680000D01*
X60925000Y-101980000D01*
X61425000Y-101980000D01*
X61425000Y-102680000D01*
X61573492Y-102680000D01*
X61573495Y-102679999D01*
X61766681Y-102641572D01*
X61766693Y-102641569D01*
X61948671Y-102566192D01*
X61948684Y-102566185D01*
X62112462Y-102456751D01*
X62112466Y-102456748D01*
X62251748Y-102317466D01*
X62251751Y-102317462D01*
X62361185Y-102153684D01*
X62361192Y-102153671D01*
X62436569Y-101971692D01*
X62436569Y-101971690D01*
X62444862Y-101930000D01*
X61641988Y-101930000D01*
X61659205Y-101920060D01*
X61715060Y-101864205D01*
X61754556Y-101795796D01*
X61775000Y-101719496D01*
X61775000Y-101640504D01*
X61754556Y-101564204D01*
X61715060Y-101495795D01*
X61659205Y-101439940D01*
X61641988Y-101430000D01*
X62444862Y-101430000D01*
X63835138Y-101430000D01*
X64638012Y-101430000D01*
X64620795Y-101439940D01*
X64564940Y-101495795D01*
X64525444Y-101564204D01*
X64505000Y-101640504D01*
X64505000Y-101719496D01*
X64525444Y-101795796D01*
X64564940Y-101864205D01*
X64620795Y-101920060D01*
X64638012Y-101930000D01*
X63835138Y-101930000D01*
X63843430Y-101971690D01*
X63843430Y-101971692D01*
X63918807Y-102153671D01*
X63918814Y-102153684D01*
X64028248Y-102317462D01*
X64028251Y-102317466D01*
X64167533Y-102456748D01*
X64167537Y-102456751D01*
X64331315Y-102566185D01*
X64331328Y-102566192D01*
X64340838Y-102570131D01*
X64395243Y-102613970D01*
X64417310Y-102680264D01*
X64400033Y-102747963D01*
X64396350Y-102753405D01*
X64318719Y-102887863D01*
X64283621Y-103018854D01*
X64279500Y-103034234D01*
X64279500Y-103185766D01*
X64284520Y-103204500D01*
X64318719Y-103332136D01*
X64356602Y-103397750D01*
X64394485Y-103463365D01*
X64501635Y-103570515D01*
X64632865Y-103646281D01*
X64779234Y-103685500D01*
X64779236Y-103685500D01*
X64930764Y-103685500D01*
X64930766Y-103685500D01*
X65077135Y-103646281D01*
X65208365Y-103570515D01*
X65315515Y-103463365D01*
X65391281Y-103332135D01*
X65430500Y-103185766D01*
X65430500Y-103034234D01*
X65391281Y-102887865D01*
X65315515Y-102756635D01*
X65208365Y-102649485D01*
X65194654Y-102641569D01*
X65166998Y-102625601D01*
X65118784Y-102575033D01*
X65105000Y-102518215D01*
X65105000Y-101980000D01*
X65605000Y-101980000D01*
X65605000Y-102680000D01*
X66003492Y-102680000D01*
X66003495Y-102679999D01*
X66196681Y-102641572D01*
X66196693Y-102641569D01*
X66378671Y-102566192D01*
X66378684Y-102566185D01*
X66542462Y-102456751D01*
X66542466Y-102456748D01*
X66681748Y-102317466D01*
X66681751Y-102317462D01*
X66791185Y-102153684D01*
X66791192Y-102153671D01*
X66866569Y-101971692D01*
X66866570Y-101971688D01*
X66872736Y-101940691D01*
X90299500Y-101940691D01*
X90299500Y-102059309D01*
X90330201Y-102173886D01*
X90389511Y-102276613D01*
X90473387Y-102360489D01*
X90551836Y-102405782D01*
X90576110Y-102419797D01*
X90576114Y-102419799D01*
X90580589Y-102420998D01*
X90640249Y-102457357D01*
X90670782Y-102520203D01*
X90672500Y-102540773D01*
X90672500Y-103639036D01*
X90652815Y-103706075D01*
X90644211Y-103716751D01*
X90644458Y-103716941D01*
X90639511Y-103723387D01*
X90588009Y-103812591D01*
X90580201Y-103826114D01*
X90549500Y-103940691D01*
X90549500Y-104059309D01*
X90580201Y-104173886D01*
X90639511Y-104276613D01*
X90723387Y-104360489D01*
X90826114Y-104419799D01*
X90940691Y-104450500D01*
X90940694Y-104450500D01*
X91059306Y-104450500D01*
X91059309Y-104450500D01*
X91173886Y-104419799D01*
X91276613Y-104360489D01*
X91360489Y-104276613D01*
X91392613Y-104220972D01*
X91443180Y-104172757D01*
X91511787Y-104159535D01*
X91576652Y-104185503D01*
X91607386Y-104220972D01*
X91639511Y-104276613D01*
X91723387Y-104360489D01*
X91826114Y-104419799D01*
X91940691Y-104450500D01*
X91940694Y-104450500D01*
X92059306Y-104450500D01*
X92059309Y-104450500D01*
X92173886Y-104419799D01*
X92276613Y-104360489D01*
X92360489Y-104276613D01*
X92419799Y-104173886D01*
X92450500Y-104059309D01*
X92450500Y-103940691D01*
X92419799Y-103826114D01*
X92360489Y-103723387D01*
X92360484Y-103723382D01*
X92355542Y-103716941D01*
X92357613Y-103715351D01*
X92330334Y-103665394D01*
X92327500Y-103639036D01*
X92327500Y-102690164D01*
X111045500Y-102690164D01*
X111045500Y-102809836D01*
X111076473Y-102925431D01*
X111136309Y-103029070D01*
X111220930Y-103113691D01*
X111324569Y-103173527D01*
X111440164Y-103204500D01*
X111682552Y-103204500D01*
X111682568Y-103204501D01*
X111690164Y-103204501D01*
X111809835Y-103204501D01*
X111809836Y-103204501D01*
X111861373Y-103190691D01*
X114299500Y-103190691D01*
X114299500Y-103309309D01*
X114330201Y-103423886D01*
X114389511Y-103526613D01*
X114473387Y-103610489D01*
X114576114Y-103669799D01*
X114690691Y-103700500D01*
X114690694Y-103700500D01*
X114809306Y-103700500D01*
X114809309Y-103700500D01*
X114923886Y-103669799D01*
X115026613Y-103610489D01*
X115026620Y-103610481D01*
X115033059Y-103605542D01*
X115034648Y-103607613D01*
X115084606Y-103580334D01*
X115110964Y-103577500D01*
X116639036Y-103577500D01*
X116706075Y-103597185D01*
X116716751Y-103605788D01*
X116716941Y-103605542D01*
X116723382Y-103610484D01*
X116723387Y-103610489D01*
X116826114Y-103669799D01*
X116940691Y-103700500D01*
X116940694Y-103700500D01*
X117059306Y-103700500D01*
X117059309Y-103700500D01*
X117173886Y-103669799D01*
X117276613Y-103610489D01*
X117360489Y-103526613D01*
X117419799Y-103423886D01*
X117450500Y-103309309D01*
X117450500Y-103190691D01*
X117419799Y-103076114D01*
X117360489Y-102973387D01*
X117276613Y-102889511D01*
X117173886Y-102830201D01*
X117059309Y-102799500D01*
X116940691Y-102799500D01*
X116826114Y-102830201D01*
X116826112Y-102830201D01*
X116826112Y-102830202D01*
X116723387Y-102889511D01*
X116716941Y-102894458D01*
X116715351Y-102892386D01*
X116665394Y-102919666D01*
X116639036Y-102922500D01*
X115110964Y-102922500D01*
X115043925Y-102902815D01*
X115033248Y-102894211D01*
X115033059Y-102894458D01*
X115026615Y-102889513D01*
X115026613Y-102889511D01*
X114923886Y-102830201D01*
X114809309Y-102799500D01*
X114690691Y-102799500D01*
X114576114Y-102830201D01*
X114576112Y-102830201D01*
X114576112Y-102830202D01*
X114473387Y-102889511D01*
X114473384Y-102889513D01*
X114389513Y-102973384D01*
X114389511Y-102973387D01*
X114330201Y-103076114D01*
X114299500Y-103190691D01*
X111861373Y-103190691D01*
X111901002Y-103180072D01*
X111925431Y-103173527D01*
X112029070Y-103113691D01*
X112113691Y-103029070D01*
X112113692Y-103029067D01*
X113863691Y-101279069D01*
X113923527Y-101175430D01*
X113954501Y-101059836D01*
X113954501Y-100940164D01*
X113923527Y-100824569D01*
X113923525Y-100824565D01*
X113909712Y-100800640D01*
X113909711Y-100800639D01*
X113863691Y-100720930D01*
X113779070Y-100636309D01*
X113779068Y-100636308D01*
X113779066Y-100636306D01*
X113675434Y-100576474D01*
X113675435Y-100576474D01*
X113665954Y-100573933D01*
X113559836Y-100545499D01*
X113440164Y-100545499D01*
X113338227Y-100572813D01*
X113324566Y-100576474D01*
X113220934Y-100636306D01*
X113220928Y-100636311D01*
X111598059Y-102259181D01*
X111536736Y-102292666D01*
X111510378Y-102295500D01*
X111440164Y-102295500D01*
X111324569Y-102326473D01*
X111324566Y-102326474D01*
X111220933Y-102386307D01*
X111220927Y-102386311D01*
X111136311Y-102470927D01*
X111136307Y-102470933D01*
X111076474Y-102574566D01*
X111076473Y-102574569D01*
X111045500Y-102690164D01*
X92327500Y-102690164D01*
X92327500Y-102360964D01*
X92347185Y-102293925D01*
X92355788Y-102283248D01*
X92355542Y-102283059D01*
X92360481Y-102276620D01*
X92360489Y-102276613D01*
X92419799Y-102173886D01*
X92450500Y-102059309D01*
X92450500Y-101940691D01*
X92419799Y-101826114D01*
X92360489Y-101723387D01*
X92276613Y-101639511D01*
X92173886Y-101580201D01*
X92059309Y-101549500D01*
X91940691Y-101549500D01*
X91826114Y-101580201D01*
X91826112Y-101580201D01*
X91826112Y-101580202D01*
X91723387Y-101639511D01*
X91723384Y-101639513D01*
X91639513Y-101723384D01*
X91639511Y-101723387D01*
X91580201Y-101826114D01*
X91549500Y-101940691D01*
X91549500Y-102059309D01*
X91580201Y-102173886D01*
X91639511Y-102276613D01*
X91639513Y-102276615D01*
X91644458Y-102283059D01*
X91642386Y-102284648D01*
X91669666Y-102334606D01*
X91672500Y-102360964D01*
X91672500Y-103639036D01*
X91653799Y-103704519D01*
X91646266Y-103716631D01*
X91639511Y-103723387D01*
X91606382Y-103780766D01*
X91605299Y-103782509D01*
X91580696Y-103804475D01*
X91556819Y-103827242D01*
X91554751Y-103827640D01*
X91553181Y-103829043D01*
X91520600Y-103834222D01*
X91488212Y-103840464D01*
X91486257Y-103839681D01*
X91484177Y-103840012D01*
X91453978Y-103826758D01*
X91423347Y-103814496D01*
X91421697Y-103812591D01*
X91420198Y-103811934D01*
X91417154Y-103807349D01*
X91392613Y-103779027D01*
X91360489Y-103723387D01*
X91360484Y-103723382D01*
X91355542Y-103716941D01*
X91357613Y-103715351D01*
X91330334Y-103665394D01*
X91327500Y-103639036D01*
X91327500Y-102206885D01*
X91318658Y-102173886D01*
X91305181Y-102123590D01*
X91262065Y-102048910D01*
X91236819Y-102023664D01*
X91203334Y-101962341D01*
X91201868Y-101948710D01*
X91201561Y-101948751D01*
X91200500Y-101940694D01*
X91200500Y-101940693D01*
X91200500Y-101940691D01*
X91169799Y-101826114D01*
X91110489Y-101723387D01*
X91026613Y-101639511D01*
X90923886Y-101580201D01*
X90809309Y-101549500D01*
X90690691Y-101549500D01*
X90576114Y-101580201D01*
X90576112Y-101580201D01*
X90576112Y-101580202D01*
X90473387Y-101639511D01*
X90473384Y-101639513D01*
X90389513Y-101723384D01*
X90389511Y-101723387D01*
X90330201Y-101826114D01*
X90299500Y-101940691D01*
X66872736Y-101940691D01*
X66874863Y-101930000D01*
X66071988Y-101930000D01*
X66089205Y-101920060D01*
X66145060Y-101864205D01*
X66184556Y-101795796D01*
X66205000Y-101719496D01*
X66205000Y-101640504D01*
X66184556Y-101564204D01*
X66145060Y-101495795D01*
X66089205Y-101439940D01*
X66071988Y-101430000D01*
X66874862Y-101430000D01*
X66866569Y-101388309D01*
X66866569Y-101388307D01*
X66791192Y-101206328D01*
X66791185Y-101206315D01*
X66681751Y-101042537D01*
X66681748Y-101042533D01*
X66542466Y-100903251D01*
X66542462Y-100903248D01*
X66378684Y-100793814D01*
X66378671Y-100793807D01*
X66196693Y-100718430D01*
X66196681Y-100718427D01*
X66003495Y-100680000D01*
X65605000Y-100680000D01*
X65605000Y-101380000D01*
X65105000Y-101380000D01*
X65105000Y-100680000D01*
X64706504Y-100680000D01*
X64513318Y-100718427D01*
X64513306Y-100718430D01*
X64331328Y-100793807D01*
X64331315Y-100793814D01*
X64167537Y-100903248D01*
X64167533Y-100903251D01*
X64028251Y-101042533D01*
X64028248Y-101042537D01*
X63918814Y-101206315D01*
X63918807Y-101206328D01*
X63843430Y-101388307D01*
X63843430Y-101388309D01*
X63835138Y-101430000D01*
X62444862Y-101430000D01*
X62436569Y-101388309D01*
X62436569Y-101388307D01*
X62361192Y-101206328D01*
X62361185Y-101206315D01*
X62251751Y-101042537D01*
X62251748Y-101042533D01*
X62112466Y-100903251D01*
X62112462Y-100903248D01*
X61948684Y-100793814D01*
X61948671Y-100793807D01*
X61766693Y-100718430D01*
X61766681Y-100718427D01*
X61573495Y-100680000D01*
X61425000Y-100680000D01*
X61425000Y-101380000D01*
X60925000Y-101380000D01*
X60925000Y-100680000D01*
X60776504Y-100680000D01*
X60583318Y-100718427D01*
X60583306Y-100718430D01*
X60401328Y-100793807D01*
X60401315Y-100793814D01*
X60237537Y-100903248D01*
X60237533Y-100903251D01*
X60212181Y-100928604D01*
X60150858Y-100962089D01*
X60081166Y-100957105D01*
X60025233Y-100915233D01*
X60000816Y-100849769D01*
X60000500Y-100840923D01*
X60000500Y-99190164D01*
X94795499Y-99190164D01*
X94795499Y-99309836D01*
X94826473Y-99425430D01*
X94886310Y-99529070D01*
X94970930Y-99613690D01*
X95074570Y-99673527D01*
X95190164Y-99704501D01*
X95190166Y-99704501D01*
X95309834Y-99704501D01*
X95309836Y-99704501D01*
X95425430Y-99673527D01*
X95529070Y-99613690D01*
X96952596Y-98190164D01*
X114795500Y-98190164D01*
X114795500Y-98309836D01*
X114826473Y-98425431D01*
X114886309Y-98529070D01*
X114970930Y-98613691D01*
X115074569Y-98673527D01*
X115190164Y-98704500D01*
X115190166Y-98704500D01*
X116809834Y-98704500D01*
X116809836Y-98704500D01*
X116925431Y-98673527D01*
X117029070Y-98613691D01*
X117113691Y-98529070D01*
X117173527Y-98425431D01*
X117204500Y-98309836D01*
X117204500Y-98190164D01*
X117173527Y-98074569D01*
X117113691Y-97970930D01*
X117029070Y-97886309D01*
X116925431Y-97826473D01*
X116809836Y-97795500D01*
X115190164Y-97795500D01*
X115074569Y-97826473D01*
X115074566Y-97826474D01*
X114970933Y-97886307D01*
X114970927Y-97886311D01*
X114886311Y-97970927D01*
X114886307Y-97970933D01*
X114826474Y-98074566D01*
X114826473Y-98074569D01*
X114795500Y-98190164D01*
X96952596Y-98190164D01*
X97151941Y-97990819D01*
X97213264Y-97957334D01*
X97239622Y-97954500D01*
X98059834Y-97954500D01*
X98059836Y-97954500D01*
X98175431Y-97923527D01*
X98279070Y-97863691D01*
X98363691Y-97779070D01*
X98423527Y-97675431D01*
X98454500Y-97559836D01*
X98454500Y-97440164D01*
X98423527Y-97324569D01*
X98363691Y-97220930D01*
X98279070Y-97136309D01*
X98175431Y-97076473D01*
X98059836Y-97045500D01*
X98059835Y-97045500D01*
X97067448Y-97045500D01*
X97067432Y-97045499D01*
X97059836Y-97045499D01*
X96940164Y-97045499D01*
X96852239Y-97069059D01*
X96852238Y-97069058D01*
X96824573Y-97076471D01*
X96824566Y-97076474D01*
X96720933Y-97136307D01*
X96720927Y-97136311D01*
X96636307Y-97220932D01*
X94886312Y-98970927D01*
X94886310Y-98970930D01*
X94826473Y-99074569D01*
X94826473Y-99074570D01*
X94795499Y-99190164D01*
X60000500Y-99190164D01*
X60000500Y-94378711D01*
X72649500Y-94378711D01*
X72649500Y-94621288D01*
X72681161Y-94861785D01*
X72743947Y-95096104D01*
X72775629Y-95172590D01*
X72836776Y-95320212D01*
X72958064Y-95530289D01*
X72958066Y-95530292D01*
X72958067Y-95530293D01*
X73105733Y-95722736D01*
X73105739Y-95722743D01*
X73277256Y-95894260D01*
X73277262Y-95894265D01*
X73469711Y-96041936D01*
X73679788Y-96163224D01*
X73903900Y-96256054D01*
X74138211Y-96318838D01*
X74318586Y-96342584D01*
X74378711Y-96350500D01*
X74378712Y-96350500D01*
X74621289Y-96350500D01*
X74669388Y-96344167D01*
X74861789Y-96318838D01*
X75096100Y-96256054D01*
X75320212Y-96163224D01*
X75530289Y-96041936D01*
X75722738Y-95894265D01*
X75894265Y-95722738D01*
X76041936Y-95530289D01*
X76142256Y-95356530D01*
X119679500Y-95356530D01*
X119679500Y-95563469D01*
X119719868Y-95766412D01*
X119719870Y-95766420D01*
X119799058Y-95957596D01*
X119914024Y-96129657D01*
X120060342Y-96275975D01*
X120060345Y-96275977D01*
X120232402Y-96390941D01*
X120423580Y-96470130D01*
X120626530Y-96510499D01*
X120626534Y-96510500D01*
X120626535Y-96510500D01*
X120833466Y-96510500D01*
X120833467Y-96510499D01*
X121036420Y-96470130D01*
X121227598Y-96390941D01*
X121399655Y-96275977D01*
X121545977Y-96129655D01*
X121660941Y-95957598D01*
X121740130Y-95766420D01*
X121780500Y-95563465D01*
X121780500Y-95356535D01*
X121740130Y-95153580D01*
X121660941Y-94962402D01*
X121545977Y-94790345D01*
X121545975Y-94790342D01*
X121399657Y-94644024D01*
X121313626Y-94586541D01*
X121227598Y-94529059D01*
X121036420Y-94449870D01*
X121036412Y-94449868D01*
X120833469Y-94409500D01*
X120833465Y-94409500D01*
X120626535Y-94409500D01*
X120626530Y-94409500D01*
X120423587Y-94449868D01*
X120423579Y-94449870D01*
X120232403Y-94529058D01*
X120060342Y-94644024D01*
X119914024Y-94790342D01*
X119799058Y-94962403D01*
X119719870Y-95153579D01*
X119719868Y-95153587D01*
X119679500Y-95356530D01*
X76142256Y-95356530D01*
X76163224Y-95320212D01*
X76256054Y-95096100D01*
X76318838Y-94861789D01*
X76350500Y-94621288D01*
X76350500Y-94378712D01*
X76318838Y-94138211D01*
X76256054Y-93903900D01*
X76163224Y-93679788D01*
X76041936Y-93469711D01*
X75965232Y-93369748D01*
X75894266Y-93277263D01*
X75894260Y-93277256D01*
X75722743Y-93105739D01*
X75722736Y-93105733D01*
X75530293Y-92958067D01*
X75530292Y-92958066D01*
X75530289Y-92958064D01*
X75320212Y-92836776D01*
X75310835Y-92832892D01*
X75096104Y-92743947D01*
X74978944Y-92712554D01*
X74861789Y-92681162D01*
X74861788Y-92681161D01*
X74861785Y-92681161D01*
X74621289Y-92649500D01*
X74621288Y-92649500D01*
X74378712Y-92649500D01*
X74378711Y-92649500D01*
X74138214Y-92681161D01*
X73903895Y-92743947D01*
X73679794Y-92836773D01*
X73679785Y-92836777D01*
X73469706Y-92958067D01*
X73277263Y-93105733D01*
X73277256Y-93105739D01*
X73105739Y-93277256D01*
X73105733Y-93277263D01*
X72958067Y-93469706D01*
X72836777Y-93679785D01*
X72836773Y-93679794D01*
X72743947Y-93903895D01*
X72681161Y-94138214D01*
X72649500Y-94378711D01*
X60000500Y-94378711D01*
X60000500Y-91624500D01*
X60020185Y-91557461D01*
X60072989Y-91511706D01*
X60124500Y-91500500D01*
X79054505Y-91500500D01*
X79121544Y-91520185D01*
G37*
%TD.AperFunction*%
%TD*%
M02*
