%TF.GenerationSoftware,KiCad,Pcbnew,10.0.1*%
%TF.CreationDate,2026-05-03T11:00:06-06:00*%
%TF.ProjectId,pcb,7063622e-6b69-4636-9164-5f7063625858,rev?*%
%TF.SameCoordinates,Original*%
%TF.FileFunction,Paste,Top*%
%TF.FilePolarity,Positive*%
%FSLAX46Y46*%
G04 Gerber Fmt 4.6, Leading zero omitted, Abs format (unit mm)*
G04 Created by KiCad (PCBNEW 10.0.1) date 2026-05-03 11:00:06*
%MOMM*%
%LPD*%
G01*
G04 APERTURE LIST*
G04 Aperture macros list*
%AMRoundRect*
0 Rectangle with rounded corners*
0 $1 Rounding radius*
0 $2 $3 $4 $5 $6 $7 $8 $9 X,Y pos of 4 corners*
0 Add a 4 corners polygon primitive as box body*
4,1,4,$2,$3,$4,$5,$6,$7,$8,$9,$2,$3,0*
0 Add four circle primitives for the rounded corners*
1,1,$1+$1,$2,$3*
1,1,$1+$1,$4,$5*
1,1,$1+$1,$6,$7*
1,1,$1+$1,$8,$9*
0 Add four rect primitives between the rounded corners*
20,1,$1+$1,$2,$3,$4,$5,0*
20,1,$1+$1,$4,$5,$6,$7,0*
20,1,$1+$1,$6,$7,$8,$9,0*
20,1,$1+$1,$8,$9,$2,$3,0*%
G04 Aperture macros list end*
%ADD10RoundRect,0.250000X0.350000X0.450000X-0.350000X0.450000X-0.350000X-0.450000X0.350000X-0.450000X0*%
%ADD11RoundRect,0.100000X0.100000X-0.850000X0.100000X0.850000X-0.100000X0.850000X-0.100000X-0.850000X0*%
%ADD12RoundRect,0.250001X-0.944999X0.872499X-0.944999X-0.872499X0.944999X-0.872499X0.944999X0.872499X0*%
%ADD13RoundRect,0.250000X0.475000X-0.337500X0.475000X0.337500X-0.475000X0.337500X-0.475000X-0.337500X0*%
%ADD14RoundRect,0.250000X-0.337500X-0.475000X0.337500X-0.475000X0.337500X0.475000X-0.337500X0.475000X0*%
%ADD15RoundRect,0.075000X-0.700000X-0.075000X0.700000X-0.075000X0.700000X0.075000X-0.700000X0.075000X0*%
%ADD16RoundRect,0.075000X-0.075000X-0.700000X0.075000X-0.700000X0.075000X0.700000X-0.075000X0.700000X0*%
%ADD17RoundRect,0.250000X0.337500X0.475000X-0.337500X0.475000X-0.337500X-0.475000X0.337500X-0.475000X0*%
%ADD18RoundRect,0.250000X0.450000X0.350000X-0.450000X0.350000X-0.450000X-0.350000X0.450000X-0.350000X0*%
%ADD19RoundRect,0.250000X-0.475000X0.337500X-0.475000X-0.337500X0.475000X-0.337500X0.475000X0.337500X0*%
%ADD20RoundRect,0.237500X-0.250000X-0.237500X0.250000X-0.237500X0.250000X0.237500X-0.250000X0.237500X0*%
%ADD21RoundRect,0.250000X0.325000X0.450000X-0.325000X0.450000X-0.325000X-0.450000X0.325000X-0.450000X0*%
%ADD22R,2.300000X1.500000*%
%ADD23R,0.800000X0.900000*%
%ADD24R,0.900000X1.250000*%
%ADD25RoundRect,0.150000X-0.512500X-0.150000X0.512500X-0.150000X0.512500X0.150000X-0.512500X0.150000X0*%
%ADD26RoundRect,0.250000X-0.350000X-0.450000X0.350000X-0.450000X0.350000X0.450000X-0.350000X0.450000X0*%
%ADD27RoundRect,0.150000X-0.500000X0.150000X-0.500000X-0.150000X0.500000X-0.150000X0.500000X0.150000X0*%
%ADD28RoundRect,0.075000X-0.575000X0.075000X-0.575000X-0.075000X0.575000X-0.075000X0.575000X0.075000X0*%
%ADD29RoundRect,0.237500X0.250000X0.237500X-0.250000X0.237500X-0.250000X-0.237500X0.250000X-0.237500X0*%
%ADD30RoundRect,0.250000X-0.312500X-1.450000X0.312500X-1.450000X0.312500X1.450000X-0.312500X1.450000X0*%
%ADD31RoundRect,0.090000X-0.660000X-0.360000X0.660000X-0.360000X0.660000X0.360000X-0.660000X0.360000X0*%
%ADD32RoundRect,0.375000X-0.625000X-0.375000X0.625000X-0.375000X0.625000X0.375000X-0.625000X0.375000X0*%
%ADD33RoundRect,0.500000X-0.500000X-1.400000X0.500000X-1.400000X0.500000X1.400000X-0.500000X1.400000X0*%
%ADD34R,1.250000X0.900000*%
%ADD35R,0.900000X0.800000*%
%ADD36RoundRect,0.250000X0.450000X-0.350000X0.450000X0.350000X-0.450000X0.350000X-0.450000X-0.350000X0*%
G04 APERTURE END LIST*
D10*
%TO.C,R6*%
X74250000Y-115250000D03*
X72250000Y-115250000D03*
%TD*%
D11*
%TO.C,U2*%
X85175000Y-127500000D03*
X85825000Y-127500000D03*
X86475000Y-127500000D03*
X87125000Y-127500000D03*
X87775000Y-127500000D03*
X88425000Y-127500000D03*
X89075000Y-127500000D03*
X89725000Y-127500000D03*
X90375000Y-127500000D03*
X91025000Y-127500000D03*
X91675000Y-127500000D03*
X92325000Y-127500000D03*
X92325000Y-134500000D03*
X91675000Y-134500000D03*
X91025000Y-134500000D03*
X90375000Y-134500000D03*
X89725000Y-134500000D03*
X89075000Y-134500000D03*
X88425000Y-134500000D03*
X87775000Y-134500000D03*
X87125000Y-134500000D03*
X86475000Y-134500000D03*
X85825000Y-134500000D03*
X85175000Y-134500000D03*
%TD*%
D12*
%TO.C,C9*%
X95250000Y-133557500D03*
X95250000Y-128442500D03*
%TD*%
D13*
%TO.C,C6*%
X83250000Y-125462500D03*
X83250000Y-127537500D03*
%TD*%
D14*
%TO.C,C8*%
X89537500Y-124250000D03*
X87462500Y-124250000D03*
%TD*%
D15*
%TO.C,U1*%
X94575000Y-105500000D03*
X94575000Y-106000000D03*
X94575000Y-106500000D03*
X94575000Y-107000000D03*
X94575000Y-107500000D03*
X94575000Y-108000000D03*
X94575000Y-108500000D03*
X94575000Y-109000000D03*
X94575000Y-109500000D03*
X94575000Y-110000000D03*
X94575000Y-110500000D03*
X94575000Y-111000000D03*
X94575000Y-111500000D03*
X94575000Y-112000000D03*
X94575000Y-112500000D03*
X94575000Y-113000000D03*
D16*
X96500000Y-114925000D03*
X97000000Y-114925000D03*
X97500000Y-114925000D03*
X98000000Y-114925000D03*
X98500000Y-114925000D03*
X99000000Y-114925000D03*
X99500000Y-114925000D03*
X100000000Y-114925000D03*
X100500000Y-114925000D03*
X101000000Y-114925000D03*
X101500000Y-114925000D03*
X102000000Y-114925000D03*
X102500000Y-114925000D03*
X103000000Y-114925000D03*
X103500000Y-114925000D03*
X104000000Y-114925000D03*
D15*
X105925000Y-113000000D03*
X105925000Y-112500000D03*
X105925000Y-112000000D03*
X105925000Y-111500000D03*
X105925000Y-111000000D03*
X105925000Y-110500000D03*
X105925000Y-110000000D03*
X105925000Y-109500000D03*
X105925000Y-109000000D03*
X105925000Y-108500000D03*
X105925000Y-108000000D03*
X105925000Y-107500000D03*
X105925000Y-107000000D03*
X105925000Y-106500000D03*
X105925000Y-106000000D03*
X105925000Y-105500000D03*
D16*
X104000000Y-103575000D03*
X103500000Y-103575000D03*
X103000000Y-103575000D03*
X102500000Y-103575000D03*
X102000000Y-103575000D03*
X101500000Y-103575000D03*
X101000000Y-103575000D03*
X100500000Y-103575000D03*
X100000000Y-103575000D03*
X99500000Y-103575000D03*
X99000000Y-103575000D03*
X98500000Y-103575000D03*
X98000000Y-103575000D03*
X97500000Y-103575000D03*
X97000000Y-103575000D03*
X96500000Y-103575000D03*
%TD*%
D14*
%TO.C,C3*%
X96537500Y-101500000D03*
X94462500Y-101500000D03*
%TD*%
D17*
%TO.C,C1*%
X103962500Y-117000000D03*
X106037500Y-117000000D03*
%TD*%
D14*
%TO.C,C19*%
X89787500Y-105250000D03*
X87712500Y-105250000D03*
%TD*%
D18*
%TO.C,Y3*%
X89850000Y-108850000D03*
X87650000Y-108850000D03*
X87650000Y-107150000D03*
X89850000Y-107150000D03*
%TD*%
D14*
%TO.C,C20*%
X87712500Y-110750000D03*
X89787500Y-110750000D03*
%TD*%
D19*
%TO.C,C2*%
X108000000Y-105537500D03*
X108000000Y-103462500D03*
%TD*%
D17*
%TO.C,C4*%
X87712500Y-112750000D03*
X89787500Y-112750000D03*
%TD*%
D14*
%TO.C,C7*%
X106037500Y-119000000D03*
X103962500Y-119000000D03*
%TD*%
D19*
%TO.C,C25*%
X110000000Y-105537500D03*
X110000000Y-103462500D03*
%TD*%
D17*
%TO.C,C24*%
X87712500Y-114750000D03*
X89787500Y-114750000D03*
%TD*%
D20*
%TO.C,R8*%
X68087500Y-108500000D03*
X69912500Y-108500000D03*
%TD*%
D21*
%TO.C,D2*%
X75975000Y-111250000D03*
X78025000Y-111250000D03*
%TD*%
%TO.C,D4*%
X75975000Y-117250000D03*
X78025000Y-117250000D03*
%TD*%
%TO.C,D3*%
X75975000Y-115250000D03*
X78025000Y-115250000D03*
%TD*%
D10*
%TO.C,R1*%
X72250000Y-111250000D03*
X74250000Y-111250000D03*
%TD*%
D21*
%TO.C,D5*%
X75975000Y-113250000D03*
X78025000Y-113250000D03*
%TD*%
D10*
%TO.C,R9*%
X72250000Y-117250000D03*
X74250000Y-117250000D03*
%TD*%
%TO.C,R10*%
X72250000Y-113250000D03*
X74250000Y-113250000D03*
%TD*%
D22*
%TO.C,SW2*%
X68350000Y-94000000D03*
X61650000Y-94000000D03*
%TD*%
D10*
%TO.C,R2*%
X105500000Y-97000000D03*
X107500000Y-97000000D03*
%TD*%
D23*
%TO.C,S4*%
X104200000Y-91950000D03*
X111800000Y-91950000D03*
X104200000Y-94050000D03*
X111800000Y-94050000D03*
D24*
X105750000Y-95075000D03*
X107250000Y-95075000D03*
X110250000Y-95075000D03*
%TD*%
D25*
%TO.C,U5*%
X70637500Y-105050000D03*
X70637500Y-106000000D03*
X70637500Y-106950000D03*
X68362500Y-106950000D03*
X68362500Y-106000000D03*
X68362500Y-105050000D03*
%TD*%
D26*
%TO.C,R3*%
X75500000Y-106750000D03*
X73500000Y-106750000D03*
%TD*%
%TO.C,R4*%
X75500000Y-104750000D03*
X73500000Y-104750000D03*
%TD*%
D27*
%TO.C,J3*%
X65995000Y-102800000D03*
X65995000Y-103600000D03*
D28*
X65995000Y-104250000D03*
X65995000Y-105250000D03*
X65995000Y-106750000D03*
X65995000Y-107750000D03*
D27*
X65995000Y-108400000D03*
X65995000Y-109200000D03*
X65995000Y-109200000D03*
X65995000Y-108400000D03*
D28*
X65995000Y-107250000D03*
X65995000Y-106250000D03*
X65995000Y-105750000D03*
X65995000Y-104750000D03*
D27*
X65995000Y-103600000D03*
X65995000Y-102800000D03*
%TD*%
D29*
%TO.C,R7*%
X68087500Y-103500000D03*
X69912500Y-103500000D03*
%TD*%
D30*
%TO.C,F1*%
X61862500Y-113750000D03*
X66137500Y-113750000D03*
%TD*%
D13*
%TO.C,C18*%
X69750000Y-134537500D03*
X69750000Y-132462500D03*
%TD*%
%TO.C,C15*%
X69750000Y-126537500D03*
X69750000Y-124462500D03*
%TD*%
D17*
%TO.C,C26*%
X103537500Y-128000000D03*
X101462500Y-128000000D03*
%TD*%
D13*
%TO.C,C14*%
X71750000Y-122750000D03*
X71750000Y-120675000D03*
%TD*%
%TO.C,C17*%
X71750000Y-134537500D03*
X71750000Y-132462500D03*
%TD*%
%TO.C,C23*%
X69750000Y-130750000D03*
X69750000Y-128675000D03*
%TD*%
%TO.C,C16*%
X69750000Y-122750000D03*
X69750000Y-120675000D03*
%TD*%
D31*
%TO.C,D1*%
X98550000Y-122350000D03*
X98550000Y-125650000D03*
X103450000Y-125650000D03*
X103450000Y-122350000D03*
%TD*%
D32*
%TO.C,U3*%
X74100000Y-129200000D03*
X74100000Y-131500000D03*
D33*
X80400000Y-131500000D03*
D32*
X74100000Y-133800000D03*
%TD*%
%TO.C,U6*%
X74100000Y-121200000D03*
X74100000Y-123500000D03*
D33*
X80400000Y-123500000D03*
D32*
X74100000Y-125800000D03*
%TD*%
D13*
%TO.C,C22*%
X71750000Y-130750000D03*
X71750000Y-128675000D03*
%TD*%
%TO.C,C13*%
X71750000Y-126537500D03*
X71750000Y-124462500D03*
%TD*%
D17*
%TO.C,C21*%
X69537500Y-98000000D03*
X67462500Y-98000000D03*
%TD*%
D34*
%TO.C,S3*%
X63575000Y-121250000D03*
X63575000Y-124250000D03*
X63575000Y-125750000D03*
D35*
X62550000Y-119700000D03*
X62550000Y-127300000D03*
X60450000Y-119700000D03*
X60450000Y-127300000D03*
%TD*%
D36*
%TO.C,R17*%
X118000000Y-98000000D03*
X118000000Y-96000000D03*
%TD*%
M02*
