%TF.GenerationSoftware,KiCad,Pcbnew,10.0.0*%
%TF.CreationDate,2026-04-30T13:09:28-06:00*%
%TF.ProjectId,pcb,7063622e-6b69-4636-9164-5f7063625858,rev?*%
%TF.SameCoordinates,Original*%
%TF.FileFunction,Soldermask,Top*%
%TF.FilePolarity,Negative*%
%FSLAX46Y46*%
G04 Gerber Fmt 4.6, Leading zero omitted, Abs format (unit mm)*
G04 Created by KiCad (PCBNEW 10.0.0) date 2026-04-30 13:09:28*
%MOMM*%
%LPD*%
G01*
G04 APERTURE LIST*
G04 Aperture macros list*
%AMRoundRect*
0 Rectangle with rounded corners*
0 $1 Rounding radius*
0 $2 $3 $4 $5 $6 $7 $8 $9 X,Y pos of 4 corners*
0 Add a 4 corners polygon primitive as box body*
4,1,4,$2,$3,$4,$5,$6,$7,$8,$9,$2,$3,0*
0 Add four circle primitives for the rounded corners*
1,1,$1+$1,$2,$3*
1,1,$1+$1,$4,$5*
1,1,$1+$1,$6,$7*
1,1,$1+$1,$8,$9*
0 Add four rect primitives between the rounded corners*
20,1,$1+$1,$2,$3,$4,$5,0*
20,1,$1+$1,$4,$5,$6,$7,0*
20,1,$1+$1,$6,$7,$8,$9,0*
20,1,$1+$1,$8,$9,$2,$3,0*%
G04 Aperture macros list end*
%ADD10C,1.700000*%
%ADD11R,1.700000X1.700000*%
%ADD12RoundRect,0.250000X-0.450000X0.262500X-0.450000X-0.262500X0.450000X-0.262500X0.450000X0.262500X0*%
%ADD13RoundRect,0.250000X-0.475000X0.250000X-0.475000X-0.250000X0.475000X-0.250000X0.475000X0.250000X0*%
%ADD14RoundRect,0.250000X0.262500X0.450000X-0.262500X0.450000X-0.262500X-0.450000X0.262500X-0.450000X0*%
%ADD15RoundRect,0.250000X-0.250000X-0.475000X0.250000X-0.475000X0.250000X0.475000X-0.250000X0.475000X0*%
%ADD16RoundRect,0.250000X0.250000X0.475000X-0.250000X0.475000X-0.250000X-0.475000X0.250000X-0.475000X0*%
%ADD17R,1.500000X2.300000*%
%ADD18RoundRect,0.250000X0.600000X0.750000X-0.600000X0.750000X-0.600000X-0.750000X0.600000X-0.750000X0*%
%ADD19O,1.700000X2.000000*%
%ADD20RoundRect,0.250000X-0.750000X0.600000X-0.750000X-0.600000X0.750000X-0.600000X0.750000X0.600000X0*%
%ADD21O,2.000000X1.700000*%
%ADD22RoundRect,0.150000X0.512500X0.150000X-0.512500X0.150000X-0.512500X-0.150000X0.512500X-0.150000X0*%
%ADD23RoundRect,0.250000X-0.262500X-0.450000X0.262500X-0.450000X0.262500X0.450000X-0.262500X0.450000X0*%
%ADD24RoundRect,0.375000X0.375000X-0.625000X0.375000X0.625000X-0.375000X0.625000X-0.375000X-0.625000X0*%
%ADD25RoundRect,0.500000X1.400000X-0.500000X1.400000X0.500000X-1.400000X0.500000X-1.400000X-0.500000X0*%
%ADD26RoundRect,0.250000X-0.600000X-0.725000X0.600000X-0.725000X0.600000X0.725000X-0.600000X0.725000X0*%
%ADD27O,1.700000X1.950000*%
%ADD28RoundRect,0.243750X0.456250X-0.243750X0.456250X0.243750X-0.456250X0.243750X-0.456250X-0.243750X0*%
%ADD29C,0.900000*%
%ADD30RoundRect,0.102000X-0.625000X0.450000X-0.625000X-0.450000X0.625000X-0.450000X0.625000X0.450000X0*%
%ADD31RoundRect,0.102000X-0.450000X0.400000X-0.450000X-0.400000X0.450000X-0.400000X0.450000X0.400000X0*%
%ADD32RoundRect,0.250000X0.600000X0.725000X-0.600000X0.725000X-0.600000X-0.725000X0.600000X-0.725000X0*%
%ADD33RoundRect,0.243750X0.243750X0.456250X-0.243750X0.456250X-0.243750X-0.456250X0.243750X-0.456250X0*%
%ADD34C,0.650000*%
%ADD35RoundRect,0.150000X0.500000X-0.150000X0.500000X0.150000X-0.500000X0.150000X-0.500000X-0.150000X0*%
%ADD36RoundRect,0.075000X0.575000X-0.075000X0.575000X0.075000X-0.575000X0.075000X-0.575000X-0.075000X0*%
%ADD37O,2.100000X1.000000*%
%ADD38O,1.600000X1.000000*%
%ADD39RoundRect,0.250000X0.475000X-0.250000X0.475000X0.250000X-0.475000X0.250000X-0.475000X-0.250000X0*%
%ADD40RoundRect,0.075000X-0.700000X-0.075000X0.700000X-0.075000X0.700000X0.075000X-0.700000X0.075000X0*%
%ADD41RoundRect,0.075000X-0.075000X-0.700000X0.075000X-0.700000X0.075000X0.700000X-0.075000X0.700000X0*%
%ADD42RoundRect,0.100000X0.100000X-0.850000X0.100000X0.850000X-0.100000X0.850000X-0.100000X-0.850000X0*%
%ADD43RoundRect,0.102000X0.625000X-0.450000X0.625000X0.450000X-0.625000X0.450000X-0.625000X-0.450000X0*%
%ADD44RoundRect,0.102000X0.450000X-0.400000X0.450000X0.400000X-0.450000X0.400000X-0.450000X-0.400000X0*%
%ADD45R,1.500000X1.000000*%
G04 APERTURE END LIST*
D10*
%TO.C,J10*%
X96520000Y-133940000D03*
X93980000Y-133940000D03*
X96520000Y-136480000D03*
X93980000Y-136480000D03*
X96520000Y-139020000D03*
X93980000Y-139020000D03*
X96520000Y-141560000D03*
D11*
X93980000Y-141560000D03*
%TD*%
D12*
%TO.C,R9*%
X91250000Y-138912500D03*
X91250000Y-137087500D03*
%TD*%
D13*
%TO.C,C19*%
X60407500Y-109795000D03*
X60407500Y-107895000D03*
%TD*%
D14*
%TO.C,R7*%
X85412500Y-109750000D03*
X83587500Y-109750000D03*
%TD*%
D15*
%TO.C,C3*%
X63957500Y-103795000D03*
X65857500Y-103795000D03*
%TD*%
D16*
%TO.C,C6*%
X76450000Y-101000000D03*
X74550000Y-101000000D03*
%TD*%
D15*
%TO.C,C14*%
X87050000Y-101000000D03*
X88950000Y-101000000D03*
%TD*%
D17*
%TO.C,SW1*%
X54500000Y-117350000D03*
X54500000Y-110650000D03*
%TD*%
D14*
%TO.C,R4*%
X89400000Y-111680000D03*
X87575000Y-111680000D03*
%TD*%
D15*
%TO.C,C17*%
X71550000Y-120000000D03*
X73450000Y-120000000D03*
%TD*%
D18*
%TO.C,J9*%
X71250000Y-147025000D03*
D19*
X68750000Y-147025000D03*
%TD*%
D20*
%TO.C,J2*%
X95525000Y-117000000D03*
D21*
X95525000Y-119500000D03*
%TD*%
D22*
%TO.C,U4*%
X89625000Y-109630000D03*
X89625000Y-108680000D03*
X89625000Y-107730000D03*
X87350000Y-107730000D03*
X87350000Y-108680000D03*
X87350000Y-109630000D03*
%TD*%
D13*
%TO.C,C11*%
X71500000Y-131050000D03*
X71500000Y-132950000D03*
%TD*%
D23*
%TO.C,R10*%
X71587500Y-124000000D03*
X73412500Y-124000000D03*
%TD*%
D18*
%TO.C,J8*%
X62750000Y-147025000D03*
D19*
X60250000Y-147025000D03*
%TD*%
D24*
%TO.C,U5*%
X74700000Y-96650000D03*
X77000000Y-96650000D03*
D25*
X77000000Y-90350000D03*
D24*
X79300000Y-96650000D03*
%TD*%
D16*
%TO.C,C15*%
X84950000Y-101000000D03*
X83050000Y-101000000D03*
%TD*%
D26*
%TO.C,J5*%
X74500000Y-84975000D03*
D27*
X77000000Y-84975000D03*
X79500000Y-84975000D03*
X82000000Y-84975000D03*
%TD*%
D28*
%TO.C,D1*%
X72000000Y-95937500D03*
X72000000Y-94062500D03*
%TD*%
D24*
%TO.C,U2*%
X83200000Y-96650000D03*
X85500000Y-96650000D03*
D25*
X85500000Y-90350000D03*
D24*
X87800000Y-96650000D03*
%TD*%
D11*
%TO.C,J3*%
X53250000Y-141140000D03*
D10*
X53250000Y-138600000D03*
X53250000Y-136060000D03*
X53250000Y-133520000D03*
X53250000Y-130980000D03*
X53250000Y-128440000D03*
X53250000Y-125900000D03*
X53250000Y-123360000D03*
%TD*%
D15*
%TO.C,C2*%
X73457500Y-118000000D03*
X75357500Y-118000000D03*
%TD*%
D29*
%TO.C,S1*%
X53500000Y-100500000D03*
X53500000Y-103500000D03*
D30*
X55575000Y-99750000D03*
X55575000Y-102750000D03*
X55575000Y-104250000D03*
D31*
X54550000Y-98200000D03*
X54550000Y-105800000D03*
X52450000Y-98200000D03*
X52450000Y-105800000D03*
%TD*%
D32*
%TO.C,J6*%
X84750000Y-147025000D03*
D27*
X82250000Y-147025000D03*
X79750000Y-147025000D03*
X77250000Y-147025000D03*
%TD*%
D33*
%TO.C,D4*%
X73437500Y-122000000D03*
X71562500Y-122000000D03*
%TD*%
D14*
%TO.C,R6*%
X85412500Y-107500000D03*
X83587500Y-107500000D03*
%TD*%
D15*
%TO.C,C7*%
X78550000Y-99000000D03*
X80450000Y-99000000D03*
%TD*%
%TO.C,C13*%
X78550000Y-101000000D03*
X80450000Y-101000000D03*
%TD*%
D34*
%TO.C,J7*%
X93307500Y-111390000D03*
X93307500Y-105610000D03*
D35*
X92167500Y-111700000D03*
X92167500Y-110900000D03*
D36*
X92167500Y-109750000D03*
X92167500Y-108750000D03*
X92167500Y-108250000D03*
X92167500Y-107250000D03*
D35*
X92167500Y-106100000D03*
X92167500Y-105300000D03*
X92167500Y-105300000D03*
X92167500Y-106100000D03*
D36*
X92167500Y-106750000D03*
X92167500Y-107750000D03*
X92167500Y-109250000D03*
X92167500Y-110250000D03*
D35*
X92167500Y-110900000D03*
X92167500Y-111700000D03*
D37*
X92807500Y-112820000D03*
D38*
X96987500Y-112820000D03*
D37*
X92807500Y-104180000D03*
D38*
X96987500Y-104180000D03*
%TD*%
D28*
%TO.C,D3*%
X90500000Y-95937500D03*
X90500000Y-94062500D03*
%TD*%
D15*
%TO.C,C8*%
X87050000Y-99000000D03*
X88950000Y-99000000D03*
%TD*%
D39*
%TO.C,C18*%
X60411229Y-113254670D03*
X60411229Y-111354670D03*
%TD*%
D11*
%TO.C,J1*%
X53440000Y-92750000D03*
D10*
X55980000Y-92750000D03*
X58520000Y-92750000D03*
X61060000Y-92750000D03*
%TD*%
D26*
%TO.C,J4*%
X61000000Y-85000000D03*
D27*
X63500000Y-85000000D03*
X66000000Y-85000000D03*
X68500000Y-85000000D03*
%TD*%
D16*
%TO.C,C4*%
X64907500Y-119295000D03*
X63007500Y-119295000D03*
%TD*%
D40*
%TO.C,U1*%
X62825000Y-107750000D03*
X62825000Y-108250000D03*
X62825000Y-108750000D03*
X62825000Y-109250000D03*
X62825000Y-109750000D03*
X62825000Y-110250000D03*
X62825000Y-110750000D03*
X62825000Y-111250000D03*
X62825000Y-111750000D03*
X62825000Y-112250000D03*
X62825000Y-112750000D03*
X62825000Y-113250000D03*
X62825000Y-113750000D03*
X62825000Y-114250000D03*
X62825000Y-114750000D03*
X62825000Y-115250000D03*
D41*
X64750000Y-117175000D03*
X65250000Y-117175000D03*
X65750000Y-117175000D03*
X66250000Y-117175000D03*
X66750000Y-117175000D03*
X67250000Y-117175000D03*
X67750000Y-117175000D03*
X68250000Y-117175000D03*
X68750000Y-117175000D03*
X69250000Y-117175000D03*
X69750000Y-117175000D03*
X70250000Y-117175000D03*
X70750000Y-117175000D03*
X71250000Y-117175000D03*
X71750000Y-117175000D03*
X72250000Y-117175000D03*
D40*
X74175000Y-115250000D03*
X74175000Y-114750000D03*
X74175000Y-114250000D03*
X74175000Y-113750000D03*
X74175000Y-113250000D03*
X74175000Y-112750000D03*
X74175000Y-112250000D03*
X74175000Y-111750000D03*
X74175000Y-111250000D03*
X74175000Y-110750000D03*
X74175000Y-110250000D03*
X74175000Y-109750000D03*
X74175000Y-109250000D03*
X74175000Y-108750000D03*
X74175000Y-108250000D03*
X74175000Y-107750000D03*
D41*
X72250000Y-105825000D03*
X71750000Y-105825000D03*
X71250000Y-105825000D03*
X70750000Y-105825000D03*
X70250000Y-105825000D03*
X69750000Y-105825000D03*
X69250000Y-105825000D03*
X68750000Y-105825000D03*
X68250000Y-105825000D03*
X67750000Y-105825000D03*
X67250000Y-105825000D03*
X66750000Y-105825000D03*
X66250000Y-105825000D03*
X65750000Y-105825000D03*
X65250000Y-105825000D03*
X64750000Y-105825000D03*
%TD*%
D39*
%TO.C,C5*%
X58392601Y-113265157D03*
X58392601Y-111365157D03*
%TD*%
D42*
%TO.C,U3*%
X62425000Y-138500000D03*
X63075000Y-138500000D03*
X63725000Y-138500000D03*
X64375000Y-138500000D03*
X65025000Y-138500000D03*
X65675000Y-138500000D03*
X66325000Y-138500000D03*
X66975000Y-138500000D03*
X67625000Y-138500000D03*
X68275000Y-138500000D03*
X68925000Y-138500000D03*
X69575000Y-138500000D03*
X69575000Y-131500000D03*
X68925000Y-131500000D03*
X68275000Y-131500000D03*
X67625000Y-131500000D03*
X66975000Y-131500000D03*
X66325000Y-131500000D03*
X65675000Y-131500000D03*
X65025000Y-131500000D03*
X64375000Y-131500000D03*
X63725000Y-131500000D03*
X63075000Y-131500000D03*
X62425000Y-131500000D03*
%TD*%
D13*
%TO.C,C1*%
X76407500Y-105845000D03*
X76407500Y-107745000D03*
%TD*%
D14*
%TO.C,TH2*%
X93325000Y-102000000D03*
X91500000Y-102000000D03*
%TD*%
D16*
%TO.C,C9*%
X84950000Y-99000000D03*
X83050000Y-99000000D03*
%TD*%
D29*
%TO.C,S2*%
X96575000Y-97250000D03*
X96575000Y-94250000D03*
D43*
X94500000Y-98000000D03*
X94500000Y-95000000D03*
X94500000Y-93500000D03*
D44*
X95525000Y-99550000D03*
X95525000Y-91950000D03*
X97625000Y-99550000D03*
X97625000Y-91950000D03*
%TD*%
D39*
%TO.C,C16*%
X65000000Y-128950000D03*
X65000000Y-127050000D03*
%TD*%
D14*
%TO.C,R5*%
X89400000Y-105680000D03*
X87575000Y-105680000D03*
%TD*%
D16*
%TO.C,C12*%
X76450000Y-99000000D03*
X74550000Y-99000000D03*
%TD*%
D45*
%TO.C,D2*%
X89800000Y-125900000D03*
X89800000Y-127500000D03*
X89800000Y-129100000D03*
X94700000Y-129100000D03*
X94700000Y-127500000D03*
X94700000Y-125900000D03*
%TD*%
D12*
%TO.C,R2*%
X90500000Y-90587500D03*
X90500000Y-92412500D03*
%TD*%
%TO.C,R1*%
X72000000Y-90587500D03*
X72000000Y-92412500D03*
%TD*%
D39*
%TO.C,C10*%
X97250000Y-127450000D03*
X97250000Y-125550000D03*
%TD*%
D23*
%TO.C,R8*%
X63995000Y-101795000D03*
X65820000Y-101795000D03*
%TD*%
D12*
%TO.C,R3*%
X58407500Y-107970000D03*
X58407500Y-109795000D03*
%TD*%
M02*
